<svg width="76" height="61" viewBox="0 0 76 61" fill="none" xmlns="http://www.w3.org/2000/svg">
<path d="M3.73098 20.2665L1.63922 2.00011L16.7188 12.7962L8.83814 14.1262L3.73098 20.2665Z" fill="#DD00BA" stroke="white" stroke-linecap="square"/>
<rect x="21" y="21" width="55" height="40" fill="#DD00BA"/>
<path d="M38.2583 39.1662H36.264C36.1873 38.7401 36.0446 38.3651 35.8358 38.0412C35.627 37.7173 35.3713 37.4425 35.0687 37.2166C34.7662 36.9908 34.4274 36.8203 34.0524 36.7053C33.6816 36.5902 33.2875 36.5327 32.8699 36.5327C32.1156 36.5327 31.4402 36.7223 30.8436 37.1016C30.2512 37.4808 29.7825 38.0369 29.4373 38.7699C29.0964 39.5028 28.926 40.3977 28.926 41.4545C28.926 42.5199 29.0964 43.419 29.4373 44.152C29.7825 44.8849 30.2534 45.4389 30.85 45.8139C31.4466 46.1889 32.1177 46.3764 32.8635 46.3764C33.2768 46.3764 33.6689 46.321 34.0396 46.2102C34.4146 46.0952 34.7534 45.9268 35.0559 45.7053C35.3585 45.4837 35.6142 45.2131 35.823 44.8935C36.036 44.5696 36.1831 44.1989 36.264 43.7812L38.2583 43.7876C38.1518 44.4311 37.9451 45.0234 37.6383 45.5646C37.3358 46.1016 36.9458 46.5661 36.4686 46.9581C35.9956 47.3459 35.4544 47.6463 34.845 47.8594C34.2356 48.0724 33.5708 48.179 32.8507 48.179C31.7172 48.179 30.7072 47.9105 29.8208 47.3736C28.9345 46.8324 28.2356 46.0589 27.7243 45.0533C27.2172 44.0476 26.9636 42.848 26.9636 41.4545C26.9636 40.0568 27.2193 38.8572 27.7306 37.8558C28.242 36.8501 28.9409 36.0788 29.8272 35.5419C30.7136 35.0007 31.7214 34.7301 32.8507 34.7301C33.5453 34.7301 34.193 34.8303 34.7939 35.0305C35.399 35.2266 35.9423 35.5163 36.4238 35.8999C36.9054 36.2791 37.3038 36.7436 37.6191 37.2933C37.9345 37.8388 38.1476 38.4631 38.2583 39.1662ZM42.3796 42.1705V48H40.4684V34.9091H42.354V39.7798H42.4755C42.7056 39.2514 43.0572 38.8317 43.5302 38.5206C44.0032 38.2095 44.6211 38.054 45.3839 38.054C46.0572 38.054 46.6452 38.1925 47.1481 38.4695C47.6552 38.7464 48.0472 39.1598 48.3242 39.7095C48.6055 40.255 48.7461 40.9368 48.7461 41.755V48H46.8349V41.9851C46.8349 41.2649 46.6495 40.7067 46.2788 40.3104C45.908 39.9098 45.3924 39.7095 44.7319 39.7095C44.2802 39.7095 43.8754 39.8054 43.5174 39.9972C43.1637 40.1889 42.8846 40.4702 42.68 40.8409C42.4798 41.2074 42.3796 41.6506 42.3796 42.1705ZM51.2965 48V38.1818H53.1438V39.7415H53.2461C53.4251 39.2131 53.7404 38.7976 54.1921 38.495C54.6481 38.1882 55.1637 38.0348 55.739 38.0348C55.8583 38.0348 55.9989 38.0391 56.1609 38.0476C56.3271 38.0561 56.457 38.0668 56.5508 38.0795V39.9077C56.4741 39.8864 56.3377 39.8629 56.1417 39.8374C55.9457 39.8075 55.7496 39.7926 55.5536 39.7926C55.1019 39.7926 54.6992 39.8885 54.3455 40.0803C53.9961 40.2678 53.7191 40.5298 53.5146 40.8665C53.31 41.1989 53.2077 41.5781 53.2077 42.0043V48H51.2965ZM58.2047 48V38.1818H60.1159V48H58.2047ZM59.1699 36.6669C58.8375 36.6669 58.552 36.5561 58.3134 36.3345C58.079 36.1087 57.9618 35.8402 57.9618 35.5291C57.9618 35.2138 58.079 34.9453 58.3134 34.7237C58.552 34.4979 58.8375 34.3849 59.1699 34.3849C59.5023 34.3849 59.7857 34.4979 60.0201 34.7237C60.2587 34.9453 60.378 35.2138 60.378 35.5291C60.378 35.8402 60.2587 36.1087 60.0201 36.3345C59.7857 36.5561 59.5023 36.6669 59.1699 36.6669ZM70.0444 40.5788L68.3121 40.8857C68.2397 40.6641 68.1246 40.4531 67.967 40.2528C67.8136 40.0526 67.6048 39.8885 67.3406 39.7607C67.0763 39.6328 66.7461 39.5689 66.3498 39.5689C65.8086 39.5689 65.3569 39.6903 64.9947 39.9332C64.6325 40.1719 64.4513 40.4808 64.4513 40.8601C64.4513 41.1882 64.5728 41.4524 64.8157 41.6527C65.0586 41.853 65.4506 42.017 65.9918 42.1449L67.5515 42.5028C68.4549 42.7116 69.1282 43.0334 69.5714 43.468C70.0146 43.9027 70.2362 44.4673 70.2362 45.1619C70.2362 45.75 70.0657 46.2741 69.7248 46.7344C69.3881 47.1903 68.9173 47.5483 68.3121 47.8082C67.7113 48.0682 67.0146 48.1982 66.2219 48.1982C65.1225 48.1982 64.2255 47.9638 63.5309 47.495C62.8363 47.022 62.4102 46.3509 62.2525 45.4815L64.0998 45.2003C64.2148 45.6818 64.4513 46.0462 64.8093 46.2933C65.1673 46.5362 65.6339 46.6577 66.2092 46.6577C66.8356 46.6577 67.3363 46.5277 67.7113 46.2678C68.0863 46.0036 68.2738 45.6818 68.2738 45.3026C68.2738 44.9957 68.1587 44.7379 67.9286 44.5291C67.7028 44.3203 67.3555 44.1626 66.8867 44.0561L65.2248 43.6918C64.3086 43.483 63.631 43.1506 63.1921 42.6946C62.7575 42.2386 62.5401 41.6612 62.5401 40.9624C62.5401 40.3828 62.7021 39.8757 63.0259 39.4411C63.3498 39.0064 63.7972 38.6676 64.3683 38.4247C64.9393 38.1776 65.5934 38.054 66.3306 38.054C67.3917 38.054 68.2269 38.2841 68.8363 38.7443C69.4457 39.2003 69.8484 39.8118 70.0444 40.5788Z" fill="white"/>
</svg>
