<svg width="128" height="23" viewBox="0 0 128 23" fill="none" xmlns="http://www.w3.org/2000/svg">
<path d="M9.21 6.58933C11.3444 6.58933 13.1679 7.37567 14.6752 8.95363C16.1877 10.5316 16.9413 12.4684 16.9413 14.7694C16.9413 17.0704 16.1824 18.9861 14.6752 20.5693C13.1626 22.1579 11.3391 22.9495 9.21 22.9495C6.84895 22.9495 5.03601 22.0681 3.77117 20.3055V22.5431H0.414062V0.77356H3.77117V9.20167C5.03601 7.46011 6.84895 6.58933 9.21 6.58933ZM5.17304 18.3317C6.10586 19.2764 7.27584 19.7461 8.68298 19.7461C10.0901 19.7461 11.2601 19.2764 12.1929 18.3317C13.1257 17.387 13.5895 16.1996 13.5895 14.7694C13.5895 13.3392 13.1257 12.1518 12.1929 11.2071C11.2601 10.2624 10.0901 9.79275 8.68298 9.79275C7.27584 9.79275 6.10586 10.2624 5.17304 11.2071C4.24021 12.1518 3.77644 13.3392 3.77644 14.7694C3.77644 16.1996 4.24021 17.387 5.17304 18.3317Z" fill="white"/>
<path d="M22.6281 16.2048C22.8758 17.387 23.445 18.2947 24.3356 18.928C25.2263 19.5613 26.312 19.878 27.5979 19.878C29.3792 19.878 30.7126 19.2341 31.6032 17.9517L34.3701 19.5719C32.8364 21.8306 30.5703 22.96 27.5663 22.96C25.0418 22.96 22.997 22.1895 21.4476 20.6432C19.8929 19.0969 19.1182 17.1442 19.1182 14.7799C19.1182 12.4156 19.8823 10.5157 21.416 8.94833C22.9496 7.38092 24.9154 6.59985 27.3186 6.59985C29.5953 6.59985 31.4662 7.39675 32.926 8.99582C34.3859 10.5949 35.1184 12.5317 35.1184 14.8116C35.1184 15.1652 35.0763 15.6296 34.9919 16.2101H22.6281V16.2048ZM22.5965 13.4658H31.7297C31.5031 12.1992 30.9813 11.2493 30.1592 10.6055C29.3423 9.9616 28.3831 9.63967 27.2869 9.63967C26.0432 9.63967 25.0102 9.98271 24.1828 10.6688C23.3554 11.3549 22.8284 12.289 22.5965 13.4711V13.4658Z" fill="white"/>
<path d="M55.0291 6.58929C56.7893 6.58929 58.207 7.15926 59.2874 8.29919C60.3625 9.43912 60.9053 10.9749 60.9053 12.9011V22.5431H57.5482V13.1175C57.5482 12.0409 57.2794 11.2071 56.7419 10.6107C56.2043 10.0196 55.4665 9.72411 54.5337 9.72411C53.4954 9.72411 52.6733 10.0671 52.062 10.7479C51.4506 11.434 51.1449 12.4578 51.1449 13.83V22.5378H47.7878V13.1122C47.7878 12.0356 47.5349 11.2018 47.0289 10.6054C46.523 10.0144 45.801 9.71883 44.8682 9.71883C43.851 9.71883 43.0236 10.0671 42.3806 10.7585C41.7377 11.4551 41.4162 12.4737 41.4162 13.8247V22.5325H38.0591V6.97982H41.4162V8.84805C42.4122 7.33341 43.8932 6.57874 45.859 6.57874C47.8247 6.57874 49.3162 7.39674 50.2701 9.03803C51.303 7.40202 52.8894 6.57874 55.0238 6.57874L55.0291 6.58929Z" fill="white"/>
<path d="M76.8054 6.99569H80.1625V22.5484H76.8054V20.3107C75.5406 22.0734 73.7276 22.9548 71.3666 22.9548C69.2322 22.9548 67.4087 22.1631 65.9014 20.5746C64.3889 18.9861 63.6353 17.0545 63.6353 14.7747C63.6353 12.4948 64.3889 10.5316 65.9014 8.95891C67.414 7.38095 69.2375 6.5946 71.3666 6.5946C73.7276 6.5946 75.5406 7.46539 76.8054 9.20695V6.99569ZM68.389 18.337C69.3218 19.2816 70.4918 19.7513 71.8989 19.7513C73.306 19.7513 74.476 19.2816 75.4088 18.337C76.3417 17.3923 76.8054 16.2049 76.8054 14.7747C76.8054 13.3445 76.3417 12.1571 75.4088 11.2124C74.476 10.2677 73.306 9.79803 71.8989 9.79803C70.4918 9.79803 69.3218 10.2677 68.389 11.2124C67.4561 12.1571 66.9924 13.3445 66.9924 14.7747C66.9924 16.2049 67.4561 17.3923 68.389 18.337Z" fill="white"/>
<path d="M96.3792 6.99569H99.7363V22.5484H96.3792V20.3107C95.1143 22.0734 93.3014 22.9548 90.9403 22.9548C88.8059 22.9548 86.9824 22.1631 85.4752 20.5746C83.9626 18.9861 83.209 17.0545 83.209 14.7747C83.209 12.4948 83.9626 10.5316 85.4752 8.95891C86.9877 7.38095 88.8112 6.5946 90.9403 6.5946C93.3014 6.5946 95.1143 7.46539 96.3792 9.20695V6.99569ZM87.9627 18.337C88.8955 19.2816 90.0655 19.7513 91.4726 19.7513C92.8798 19.7513 94.0497 19.2816 94.9826 18.337C95.9154 17.3923 96.3792 16.2049 96.3792 14.7747C96.3792 13.3445 95.9154 12.1571 94.9826 11.2124C94.0497 10.2677 92.8798 9.79803 91.4726 9.79803C90.0655 9.79803 88.8955 10.2677 87.9627 11.2124C87.0299 12.1571 86.5661 13.3445 86.5661 14.7747C86.5661 16.2049 87.0299 17.3923 87.9627 18.337Z" fill="white"/>
<path d="M107.004 9.60805C107.852 7.68178 109.449 6.716 111.789 6.716V10.3575C110.503 10.273 109.386 10.5791 108.432 11.2757C107.478 11.9724 107.004 13.1176 107.004 14.7114V22.5484H103.646V6.99571H107.004V9.60805Z" fill="white"/>
<path d="M128 22.5484H123.994L117.628 15.3605V22.5484H114.271V0.77356H117.628V13.8722L123.657 6.99569H127.757L120.922 14.6164L128.005 22.5484H128Z" fill="white"/>
</svg>
