<svg width="1915" height="939" viewBox="0 0 1915 939" fill="none" xmlns="http://www.w3.org/2000/svg">
<rect width="1915" height="939" fill="white"/>
<path d="M699.393 411.1C666.243 411.1 653.043 384.25 653.043 357.25V355.9C653.043 330.25 666.243 301.9 699.393 301.9C723.093 301.9 740.643 315.85 742.743 335.65H735.843C733.743 319.9 720.393 308.05 699.393 308.05C671.343 308.05 659.793 333.55 659.793 355.6V357.4C659.793 380.95 671.343 404.95 699.393 404.95C720.393 404.95 734.343 393.25 736.143 377.2H743.043C740.943 397.3 723.093 411.1 699.393 411.1ZM783.027 411.1C766.077 411.1 755.577 400.3 755.577 382.3V334H762.477V381.7C762.477 396.55 769.977 404.95 783.777 404.95C796.977 404.95 810.177 394.75 810.177 379V334H816.927V409H810.177V404.05C810.177 400.75 810.627 398.2 811.527 394.9L811.977 393.25L811.677 392.95L810.177 395.8C804.777 405.1 794.577 411.1 783.027 411.1ZM844.375 409H837.625V304H844.375V409ZM898.548 404.2V410.35C889.698 412 880.848 409.75 876.648 404.8C873.798 401.35 872.448 396.55 872.448 390.4V340.15H859.848V334H866.898C871.248 334 872.448 331.75 872.448 327.55V314.8L879.198 311.8V329.5C879.198 331.45 878.598 333.4 877.098 333.85V334H897.498V340.15H879.198V389.65C879.198 400.9 885.348 405.7 898.548 404.2ZM938.739 411.1C921.789 411.1 911.289 400.3 911.289 382.3V334H918.189V381.7C918.189 396.55 925.689 404.95 939.489 404.95C952.689 404.95 965.889 394.75 965.889 379V334H972.639V409H965.889V404.05C965.889 400.75 966.339 398.2 967.239 394.9L967.689 393.25L967.389 392.95L965.889 395.8C960.489 405.1 950.289 411.1 938.739 411.1ZM1000.24 409H993.338V334H1000.24V339.1C1000.24 342.4 999.938 344.95 998.888 348.25L998.288 350.05L998.588 350.2L1000.24 347.35C1003.24 341.65 1007.74 337.6 1013.89 335.05C1017.64 333.55 1021.99 332.5 1026.79 332.05L1031.89 331.9V338.8H1026.19C1007.14 338.8 1000.24 354.25 1000.24 368.35V409ZM1070.97 411.1C1050.72 411.1 1035.12 394.3 1035.12 373V370.15C1035.12 348.85 1050.87 331.9 1070.97 331.9C1092.12 331.9 1106.97 347.8 1106.97 370.15V371.8H1041.87V373C1041.87 391.45 1054.47 404.95 1070.97 404.95C1083.12 404.95 1093.62 397.6 1098.12 385.6H1104.87C1100.52 401.05 1087.32 411.1 1070.97 411.1ZM1041.87 365.65H1100.22C1097.97 349.45 1085.67 338.05 1070.97 338.05C1056.42 338.05 1044.12 349.45 1041.87 365.65ZM1175.94 411.1C1160.64 411.1 1149.24 402.55 1149.24 390.55C1149.24 377.05 1158.09 369.55 1173.39 367.15L1200.24 362.95C1203.99 362.35 1206.09 360.4 1206.09 357.7V356.2C1206.09 345.7 1196.94 338.05 1183.74 338.05C1173.84 338.05 1163.64 342.1 1160.19 352.15H1152.84C1156.44 340.45 1167.54 331.9 1183.74 331.9C1200.84 331.9 1212.84 341.5 1212.84 355.6V409H1205.79V404.2C1205.79 400.75 1206.09 398.2 1207.44 394.9L1208.49 392.8L1208.34 392.65L1205.79 396.55C1199.49 406.3 1187.94 411.1 1175.94 411.1ZM1175.94 404.95C1191.09 404.95 1206.09 395.95 1206.09 383.8V368.2L1175.64 373C1162.74 375.1 1155.99 380.05 1155.99 390.55C1155.99 398.95 1164.54 404.95 1175.94 404.95ZM1263.59 404.2V410.35C1254.74 412 1245.89 409.75 1241.69 404.8C1238.84 401.35 1237.49 396.55 1237.49 390.4V340.15H1224.89V334H1231.94C1236.29 334 1237.49 331.75 1237.49 327.55V314.8L1244.24 311.8V329.5C1244.24 331.45 1243.64 333.4 1242.14 333.85V334H1262.54V340.15H1244.24V389.65C1244.24 400.9 1250.39 405.7 1263.59 404.2Z" fill="#7B36FF"/>
<path d="M626.135 611H556.135V471H622.735C651.135 471 666.735 484 666.735 507.4C666.735 523.4 656.535 534.2 645.335 538V539C659.335 543.8 670.935 556 670.935 572.8C670.935 596.6 654.135 611 626.135 611ZM581.535 491.6V529.8H619.935C632.935 529.8 641.935 522.4 641.935 510C641.935 498.2 634.335 491.6 619.935 491.6H581.535ZM581.535 549.4V590.4H624.335C637.535 590.4 645.135 582.8 645.135 570.6C645.135 557.8 635.535 549.4 623.335 549.4H581.535ZM730.409 613.8C700.209 613.8 679.809 593.6 679.809 564V557.6C679.809 529.2 701.009 508.4 730.409 508.2C760.409 508.4 781.209 528.6 781.209 557.6V565.8H705.409V567.6C705.409 583.2 715.209 595.6 730.409 595.6C741.409 595.6 750.009 589 754.009 577.2H779.609C774.609 600 756.009 613.8 730.409 613.8ZM705.609 550.2H755.409C753.409 535.8 743.809 526.4 730.809 526.4C717.809 526.4 707.809 535.6 705.609 550.2ZM821.346 611H795.746V510.6H821.346V513.4C821.146 517 820.546 520 818.346 524L817.546 526L817.946 526.4L821.346 522.2C827.746 513.6 838.946 508.2 850.146 508.2C865.546 508.2 876.546 514.2 882.546 524.8H883.346C890.746 514 903.146 508.2 917.146 508.2C941.546 508.2 955.146 523.6 955.146 551.4V611H929.546V550.4C929.546 537 923.546 526.4 910.546 526.4C898.546 526.4 888.346 536 888.346 551.8V611H862.746V550.4C862.746 537 856.546 526.4 843.746 526.4C831.546 526.4 821.346 536 821.346 551.8V611ZM1004.26 613.8C983.657 613.8 969.457 601.8 969.457 585.2C969.457 565.4 984.257 557 1005.66 553.2L1031.86 549C1035.26 548.4 1037.26 546.6 1037.26 544V542.8C1037.26 535 1029.46 528.8 1018.46 528.8C1008.46 528.8 1000.66 533.6 998.257 541.4H972.857C974.857 523 992.857 508.2 1019.26 508.2C1045.86 508.2 1063.86 521.2 1063.86 542.4V611H1040.26V606.8C1040.26 603 1041.06 600 1042.66 596L1044.26 592.8L1043.86 592.6L1040.26 598C1032.86 609.2 1017.66 613.8 1004.26 613.8ZM1011.86 595.4C1025.06 595.4 1037.46 587.6 1037.46 576.4V564L1011.06 568.8C1000.26 570.8 995.057 574.8 995.057 583.2C995.057 590.4 1002.26 595.4 1011.86 595.4ZM1115.78 613.8C1095.18 613.8 1080.98 601.8 1080.98 585.2C1080.98 565.4 1095.78 557 1117.18 553.2L1143.38 549C1146.78 548.4 1148.78 546.6 1148.78 544V542.8C1148.78 535 1140.98 528.8 1129.98 528.8C1119.98 528.8 1112.18 533.6 1109.78 541.4H1084.38C1086.38 523 1104.38 508.2 1130.78 508.2C1157.38 508.2 1175.38 521.2 1175.38 542.4V611H1151.78V606.8C1151.78 603 1152.58 600 1154.18 596L1155.78 592.8L1155.38 592.6L1151.78 598C1144.38 609.2 1129.18 613.8 1115.78 613.8ZM1123.38 595.4C1136.58 595.4 1148.98 587.6 1148.98 576.4V564L1122.58 568.8C1111.78 570.8 1106.58 574.8 1106.58 583.2C1106.58 590.4 1113.78 595.4 1123.38 595.4ZM1222.32 611H1196.72V511H1222.32V514.4C1222.32 518.8 1221.72 522.2 1219.92 526.6L1218.72 529.2L1219.32 529.6L1222.32 525.2C1225.92 519 1232.12 513.6 1238.92 511C1242.52 509.6 1246.52 508.6 1250.92 508.4H1257.12V530.4L1246.72 530.2C1230.12 530 1222.32 543.4 1222.32 558.6V611ZM1297.91 611H1272.31V471H1297.91V557.2H1299.11L1341.91 511H1369.31L1323.31 559.4L1369.31 611H1341.91L1298.91 562H1297.91V611Z" fill="#C2FF00"/>
</svg>
