<svg width="108" height="61" viewBox="0 0 108 61" fill="none" xmlns="http://www.w3.org/2000/svg">
<path d="M3.73098 20.2665L1.63922 2.00011L16.7188 12.7962L8.83814 14.1262L3.73098 20.2665Z" fill="#0073DD" stroke="white" stroke-linecap="square"/>
<rect x="21" y="21" width="87" height="40" fill="#0073DD"/>
<path d="M42.9252 34.9091V48H40.5346L34.8393 39.7607H34.7434V48H31.9757V34.9091H34.4047L40.0552 43.142H40.1703V34.9091H42.9252ZM47.9606 48.1854C47.3342 48.1854 46.7759 48.0767 46.2859 47.8594C45.7958 47.6378 45.408 47.3118 45.1225 46.8814C44.8413 46.4467 44.7006 45.9055 44.7006 45.2578C44.7006 44.7124 44.8008 44.2543 45.0011 43.8835C45.2013 43.5128 45.4741 43.2145 45.8192 42.9886C46.1644 42.7628 46.5565 42.5923 46.9954 42.4773C47.4386 42.3622 47.9031 42.2812 48.3888 42.2344C48.9599 42.1747 49.4201 42.1193 49.7695 42.0682C50.119 42.0128 50.3725 41.9318 50.5302 41.8253C50.6879 41.7187 50.7667 41.5611 50.7667 41.3523V41.3139C50.7667 40.9091 50.6388 40.5959 50.3832 40.3743C50.1317 40.1527 49.7738 40.0419 49.3093 40.0419C48.8192 40.0419 48.4293 40.1506 48.1396 40.3679C47.8498 40.581 47.658 40.8494 47.5643 41.1733L45.0458 40.9688C45.1737 40.3722 45.4251 39.8565 45.8001 39.4219C46.1751 38.983 46.6587 38.6463 47.2511 38.4119C47.8477 38.1733 48.538 38.054 49.3221 38.054C49.8675 38.054 50.3896 38.1179 50.8881 38.2457C51.391 38.3736 51.8363 38.5717 52.2241 38.8402C52.6161 39.1087 52.9251 39.4538 53.1509 39.8757C53.3768 40.2933 53.4897 40.794 53.4897 41.3778V48H50.9073V46.6385H50.8306C50.6729 46.9453 50.462 47.2159 50.1978 47.4503C49.9336 47.6804 49.6161 47.8615 49.2454 47.9936C48.8746 48.1214 48.4464 48.1854 47.9606 48.1854ZM48.7404 46.3061C49.141 46.3061 49.4947 46.2273 49.8015 46.0696C50.1083 45.9077 50.3491 45.6903 50.5238 45.4176C50.6985 45.1449 50.7859 44.8359 50.7859 44.4908V43.4489C50.7006 43.5043 50.5835 43.5554 50.4343 43.6023C50.2894 43.6449 50.1254 43.6854 49.9421 43.7237C49.7589 43.7578 49.5756 43.7898 49.3924 43.8196C49.2092 43.8452 49.043 43.8686 48.8938 43.8899C48.5742 43.9368 48.2951 44.0114 48.0565 44.1136C47.8178 44.2159 47.6325 44.3544 47.5004 44.5291C47.3683 44.6996 47.3022 44.9126 47.3022 45.1683C47.3022 45.5391 47.4364 45.8224 47.7049 46.0185C47.9776 46.2102 48.3228 46.3061 48.7404 46.3061ZM58.3253 42.3239V48H55.6023V38.1818H58.1974V39.9141H58.3125C58.5298 39.343 58.8942 38.8913 59.4055 38.5589C59.9169 38.2223 60.5369 38.054 61.2656 38.054C61.9474 38.054 62.5419 38.2031 63.049 38.5014C63.5561 38.7997 63.9503 39.2259 64.2315 39.7798C64.5128 40.3295 64.6534 40.9858 64.6534 41.7486V48H61.9304V42.2344C61.9347 41.6335 61.7813 41.1648 61.4702 40.8281C61.1591 40.4872 60.7308 40.3168 60.1854 40.3168C59.8189 40.3168 59.495 40.3956 59.2138 40.5533C58.9368 40.7109 58.7195 40.9411 58.5618 41.2436C58.4084 41.5419 58.3295 41.902 58.3253 42.3239ZM70.4174 48.1598C69.6717 48.1598 68.9963 47.968 68.3912 47.5845C67.7903 47.1967 67.313 46.6278 66.9593 45.8778C66.6099 45.1236 66.4352 44.1989 66.4352 43.1037C66.4352 41.9787 66.6163 41.0433 66.9785 40.2976C67.3407 39.5476 67.8223 38.9872 68.4231 38.6165C69.0282 38.2415 69.6909 38.054 70.411 38.054C70.9608 38.054 71.4189 38.1477 71.7853 38.3352C72.1561 38.5185 72.4544 38.7486 72.6802 39.0256C72.9103 39.2983 73.085 39.5668 73.2044 39.831H73.2875V34.9091H76.0041V48H73.3194V46.4276H73.2044C73.0765 46.7003 72.8954 46.9709 72.661 47.2393C72.4309 47.5036 72.1305 47.723 71.7598 47.8977C71.3933 48.0724 70.9458 48.1598 70.4174 48.1598ZM71.2804 45.9929C71.7193 45.9929 72.09 45.8736 72.3926 45.6349C72.6994 45.392 72.9338 45.0533 73.0957 44.6186C73.2619 44.1839 73.345 43.6747 73.345 43.0909C73.345 42.5071 73.264 42 73.1021 41.5696C72.9402 41.1392 72.7058 40.8068 72.399 40.5724C72.0922 40.3381 71.7193 40.2209 71.2804 40.2209C70.8329 40.2209 70.4558 40.3423 70.149 40.5852C69.8422 40.8281 69.6099 41.1648 69.4522 41.5952C69.2946 42.0256 69.2157 42.5241 69.2157 43.0909C69.2157 43.6619 69.2946 44.1669 69.4522 44.6058C69.6142 45.0405 69.8464 45.3814 70.149 45.6286C70.4558 45.8714 70.8329 45.9929 71.2804 45.9929ZM78.2429 48V38.1818H80.9659V48H78.2429ZM79.6108 36.9162C79.206 36.9162 78.8587 36.782 78.5689 36.5135C78.2834 36.2408 78.1406 35.9148 78.1406 35.5355C78.1406 35.1605 78.2834 34.8388 78.5689 34.5703C78.8587 34.2976 79.206 34.1612 79.6108 34.1612C80.0156 34.1612 80.3608 34.2976 80.6463 34.5703C80.9361 34.8388 81.081 35.1605 81.081 35.5355C81.081 35.9148 80.9361 36.2408 80.6463 36.5135C80.3608 36.782 80.0156 36.9162 79.6108 36.9162ZM85.8702 42.3239V48H83.1472V38.1818H85.7424V39.9141H85.8574C86.0748 39.343 86.4391 38.8913 86.9505 38.5589C87.4618 38.2223 88.0819 38.054 88.8105 38.054C89.4924 38.054 90.0868 38.2031 90.5939 38.5014C91.101 38.7997 91.4952 39.2259 91.7765 39.7798C92.0577 40.3295 92.1983 40.9858 92.1983 41.7486V48H89.4753V42.2344C89.4796 41.6335 89.3262 41.1648 89.0151 40.8281C88.704 40.4872 88.2757 40.3168 87.7303 40.3168C87.3638 40.3168 87.04 40.3956 86.7587 40.5533C86.4817 40.7109 86.2644 40.9411 86.1067 41.2436C85.9533 41.5419 85.8745 41.902 85.8702 42.3239ZM94.3445 48V38.1818H97.0675V48H94.3445ZM95.7124 36.9162C95.3075 36.9162 94.9602 36.782 94.6705 36.5135C94.3849 36.2408 94.2422 35.9148 94.2422 35.5355C94.2422 35.1605 94.3849 34.8388 94.6705 34.5703C94.9602 34.2976 95.3075 34.1612 95.7124 34.1612C96.1172 34.1612 96.4624 34.2976 96.7479 34.5703C97.0376 34.8388 97.1825 35.1605 97.1825 35.5355C97.1825 35.9148 97.0376 36.2408 96.7479 36.5135C96.4624 36.782 96.1172 36.9162 95.7124 36.9162Z" fill="white"/>
</svg>
