<svg width="532" height="158" viewBox="0 0 532 158" fill="none" xmlns="http://www.w3.org/2000/svg">
<g clip-path="url(#clip0_165_11)">
<rect width="532" height="158" fill="white"/>
<path d="M-766.92 117H-779.88L-745.68 33H-730.08L-695.88 117H-708.96L-718.08 94.92H-757.8L-766.92 117ZM-738.24 46.08L-753.6 84.48H-722.16L-737.52 46.08H-738.24ZM-648.412 117H-661.252V33H-624.292C-605.692 33 -595.252 40.92 -595.252 57.48C-595.252 70.56 -602.092 78.48 -614.212 80.76L-595.972 117H-608.932L-626.572 82.08H-648.412V117ZM-648.412 43.56V71.52H-624.892C-613.972 71.52 -607.972 67.32 -607.972 57.48C-607.972 47.64 -613.972 43.56 -624.892 43.56H-648.412ZM-557.637 118.68C-575.397 118.68 -587.757 106.2 -587.757 88.56V85.2C-587.757 68.16 -575.037 55.32 -557.637 55.32C-539.997 55.32 -527.637 67.68 -527.637 85.2V89.28H-574.797V90.24C-574.797 101.04 -567.837 109.2 -557.637 109.2C-550.317 109.2 -544.317 104.76 -541.677 97.2H-528.837C-531.837 110.4 -542.997 118.68 -557.637 118.68ZM-574.677 80.88H-540.717C-542.037 71.28 -548.757 64.68 -557.637 64.68C-566.277 64.68 -573.357 71.16 -574.677 80.88ZM-505.228 117H-518.068V56.76H-505.228V58.92C-505.228 61.08 -505.708 62.88 -506.788 65.4L-507.388 66.6L-507.028 66.84L-505.228 64.44C-501.388 58.68 -494.308 55.32 -487.228 55.32C-477.988 55.32 -471.268 59.16 -467.788 65.88H-467.308C-463.108 59.4 -455.548 55.32 -446.788 55.32C-432.508 55.32 -424.348 64.44 -424.348 80.28V117H-437.188V80.04C-437.188 71.16 -441.388 64.68 -449.788 64.68C-457.708 64.68 -464.788 71.04 -464.788 81V117H-477.628V80.04C-477.628 71.16 -481.828 64.68 -490.348 64.68C-498.028 64.68 -505.228 71.04 -505.228 81V117ZM-394.251 118.68C-406.611 118.68 -415.251 111.6 -415.251 101.64C-415.251 90.12 -406.851 84.72 -394.251 82.68L-377.091 79.8C-374.691 79.44 -373.371 78.36 -373.371 76.68V75.84C-373.371 70.2 -378.771 65.76 -386.331 65.76C-392.931 65.76 -398.451 68.76 -400.251 74.28H-413.091C-411.411 63.72 -401.211 55.32 -385.971 55.32C-370.731 55.32 -360.051 63.12 -360.051 75.36V117H-372.171V114.24C-372.171 111.84 -371.811 109.8 -370.731 107.52L-369.891 105.6L-370.011 105.48L-372.171 108.72C-376.731 115.56 -385.851 118.68 -394.251 118.68ZM-390.891 109.08C-381.891 109.08 -373.371 103.92 -373.371 96.48V87.72L-391.251 90.72C-398.691 92.04 -402.531 94.92 -402.531 100.8C-402.531 105.72 -397.611 109.08 -390.891 109.08ZM-333.9 117H-346.74V57H-333.9V59.52C-333.9 62.28 -334.26 64.2 -335.22 66.84L-335.82 68.4L-335.58 68.52L-333.9 66C-331.62 62.04 -327.9 58.8 -323.7 57.12C-321.3 56.28 -318.66 55.68 -315.66 55.44L-311.82 55.32V66.6H-317.82C-329.1 66.6 -333.9 75.72 -333.9 85.32V117ZM-289.252 117H-302.092V33H-289.252V84.72H-288.652L-260.692 57.12H-246.532L-276.172 86.16L-246.532 117H-260.692L-288.652 87.72H-289.252V117ZM-220.579 118.68C-232.939 118.68 -241.579 111.6 -241.579 101.64C-241.579 90.12 -233.179 84.72 -220.579 82.68L-203.419 79.8C-201.019 79.44 -199.699 78.36 -199.699 76.68V75.84C-199.699 70.2 -205.099 65.76 -212.659 65.76C-219.259 65.76 -224.779 68.76 -226.579 74.28H-239.419C-237.739 63.72 -227.539 55.32 -212.299 55.32C-197.059 55.32 -186.379 63.12 -186.379 75.36V117H-198.499V114.24C-198.499 111.84 -198.139 109.8 -197.059 107.52L-196.219 105.6L-196.339 105.48L-198.499 108.72C-203.059 115.56 -212.179 118.68 -220.579 118.68ZM-217.219 109.08C-208.219 109.08 -199.699 103.92 -199.699 96.48V87.72L-217.579 90.72C-225.019 92.04 -228.859 94.92 -228.859 100.8C-228.859 105.72 -223.939 109.08 -217.219 109.08ZM-139.965 118.68C-148.005 118.68 -155.925 114.24 -159.525 106.44L-161.205 103.08L-161.445 103.2L-161.085 104.76C-160.245 107.76 -159.525 109.68 -159.525 112.08V117H-172.365V33H-159.525V66.6H-159.045C-155.445 59.16 -147.885 55.2 -139.965 55.2C-124.365 55.2 -113.925 67.32 -113.925 85.56V88.56C-113.925 105.96 -124.365 118.68 -139.965 118.68ZM-142.485 109.32C-133.965 109.32 -126.645 101.16 -126.645 88.68V85.2C-126.645 72.72 -134.085 64.68 -142.725 64.68C-152.325 64.68 -159.285 72.24 -159.285 83.64V90.24C-159.285 101.52 -152.085 109.32 -142.485 109.32ZM-90.2703 117H-102.99V33H-90.2703V117ZM-49.5116 118.68C-67.2716 118.68 -79.6316 106.2 -79.6316 88.56V85.2C-79.6316 68.16 -66.9116 55.32 -49.5116 55.32C-31.8716 55.32 -19.5116 67.68 -19.5116 85.2V89.28H-66.6716V90.24C-66.6716 101.04 -59.7116 109.2 -49.5116 109.2C-42.1916 109.2 -36.1916 104.76 -33.5516 97.2H-20.7116C-23.7116 110.4 -34.8716 118.68 -49.5116 118.68ZM-66.5516 80.88H-32.5916C-33.9116 71.28 -40.6316 64.68 -49.5116 64.68C-58.1516 64.68 -65.2316 71.16 -66.5516 80.88ZM30.1038 117H17.2637V33H54.2238C72.8238 33 83.2638 41.52 83.2638 58.08C83.2638 74.64 72.4638 83.28 54.2238 83.28H30.1038V117ZM30.1038 43.56V72.72H53.6238C64.5438 72.72 70.5438 67.92 70.5438 58.08C70.5438 48.24 64.5438 43.56 53.6238 43.56H30.1038ZM107.897 117H95.0566V57H107.897V59.52C107.897 62.28 107.537 64.2 106.577 66.84L105.977 68.4L106.217 68.52L107.897 66C110.177 62.04 113.897 58.8 118.097 57.12C120.497 56.28 123.137 55.68 126.137 55.44L129.977 55.32V66.6H123.977C112.697 66.6 107.897 75.72 107.897 85.32V117ZM162.598 118.68C144.838 118.68 132.478 106.2 132.478 88.56V85.2C132.478 68.16 145.198 55.32 162.598 55.32C180.238 55.32 192.598 67.68 192.598 85.2V89.28H145.438V90.24C145.438 101.04 152.398 109.2 162.598 109.2C169.918 109.2 175.918 104.76 178.558 97.2H191.398C188.398 110.4 177.238 118.68 162.598 118.68ZM145.558 80.88H179.518C178.198 71.28 171.478 64.68 162.598 64.68C153.958 64.68 146.878 71.16 145.558 80.88ZM226.743 118.68C211.143 118.68 200.823 112.44 199.743 102H213.183C214.623 106.68 219.543 109.44 226.743 109.44C234.903 109.44 240.663 105.84 240.663 100.8C240.663 96.84 238.023 94.44 229.023 92.64L218.583 90.6C206.703 88.2 200.943 82.68 200.943 73.68C200.943 62.4 210.903 55.32 226.743 55.32C241.623 55.32 251.223 61.44 251.943 71.88H239.223C238.143 67.32 233.463 64.56 226.623 64.56C219.663 64.56 213.903 67.44 213.903 72.96C213.903 77.64 217.023 79.32 225.183 81.12L235.503 83.04C247.743 85.44 253.863 91.2 253.863 99.72C253.863 111.36 243.303 118.68 226.743 118.68ZM290.918 118.68C273.158 118.68 260.798 106.2 260.798 88.56V85.2C260.798 68.16 273.518 55.32 290.918 55.32C308.558 55.32 320.918 67.68 320.918 85.2V89.28H273.758V90.24C273.758 101.04 280.718 109.2 290.918 109.2C298.238 109.2 304.238 104.76 306.878 97.2H319.718C316.718 110.4 305.558 118.68 290.918 118.68ZM273.878 80.88H307.838C306.518 71.28 299.798 64.68 290.918 64.68C282.278 64.68 275.198 71.16 273.878 80.88ZM343.326 117H330.486V57H343.326V59.4C343.326 61.68 342.846 63.48 341.766 66L341.166 67.2L341.526 67.44L343.326 65.04C347.286 59.16 354.246 55.32 362.046 55.32C376.806 55.32 384.966 64.44 384.966 80.88V117H372.126V80.52C372.126 70.32 367.686 64.68 358.926 64.68C350.286 64.68 343.326 71.4 343.326 81.72V117ZM425.335 118.68C407.695 118.68 395.095 106.2 395.095 88.56V85.2C395.095 68.16 408.055 55.32 425.335 55.32C441.775 55.32 453.895 65.28 454.375 79.32H441.655C441.055 70.32 433.855 64.68 425.455 64.68C415.855 64.68 408.055 72.6 408.055 84.12V90C408.055 101.28 415.615 109.2 425.335 109.2C433.855 109.2 441.055 103.56 441.655 94.56H454.375C453.895 108.96 442.015 118.68 425.335 118.68ZM491.778 118.68C474.018 118.68 461.658 106.2 461.658 88.56V85.2C461.658 68.16 474.378 55.32 491.778 55.32C509.418 55.32 521.778 67.68 521.778 85.2V89.28H474.618V90.24C474.618 101.04 481.578 109.2 491.778 109.2C499.098 109.2 505.098 104.76 507.738 97.2H520.578C517.578 110.4 506.418 118.68 491.778 118.68ZM474.738 80.88H508.698C507.378 71.28 500.658 64.68 491.778 64.68C483.138 64.68 476.058 71.16 474.738 80.88Z" fill="black"/>
</g>
<defs>
<clipPath id="clip0_165_11">
<rect width="532" height="158" fill="white"/>
</clipPath>
</defs>
</svg>
