<svg width="113" height="19" viewBox="0 0 113 19" fill="none" xmlns="http://www.w3.org/2000/svg">
<path d="M0.796875 18.0922V0.0358276H10.0308C13.8735 0.0358276 16.0414 1.6862 16.0414 4.60187C16.0414 6.58843 14.5969 8.11044 12.92 8.65242V8.78078C14.984 9.37369 16.6853 11.128 16.6853 13.2429C16.6853 16.2095 14.3116 18.0922 10.5728 18.0922H0.796875ZM3.27244 7.9291H9.74761C11.9909 7.9291 13.6943 6.74328 13.6943 4.73023C13.6943 2.89852 12.3271 1.89199 9.74761 1.89199H3.27244V7.92707V7.9291ZM3.27244 16.236H10.4689C12.8161 16.236 14.1832 15.0502 14.1832 13.0881C14.1832 11.1259 12.429 9.70988 10.2631 9.70988H3.27244V16.236Z" fill="#7441E5"/>
<path d="M18.1562 11.9532V11.3073C18.1562 7.64384 21.1738 4.83209 25.1734 4.83209C29.173 4.83209 32.215 7.51548 32.215 11.3073V11.9776H20.6339V12.1834C20.6339 14.7894 22.543 16.7494 25.1734 16.7494C27.1335 16.7494 28.7329 15.692 29.4297 13.9112H31.9053C31.1311 16.6965 28.5781 18.4507 25.1734 18.4507C21.0984 18.4507 18.1562 15.6899 18.1562 11.9511V11.9532ZM29.7129 10.4311C29.3768 8.13488 27.5206 6.53544 25.1978 6.53544C22.8751 6.53544 21.0189 8.10839 20.6583 10.4311H29.7129Z" fill="#7441E5"/>
<path d="M34.4849 18.0922V5.11738H36.9604V5.68584C36.9339 6.17688 36.8565 6.58845 36.6242 7.13043L36.4959 7.41364L36.5468 7.46457L36.9604 6.94909C37.8895 5.60841 39.6438 4.83417 41.4225 4.83417C43.6414 4.83417 45.2408 5.71029 46.0395 7.2323H46.1434C47.0725 5.83865 48.9287 4.83417 51.0966 4.83417C54.3994 4.83417 56.3065 6.7433 56.3065 9.99311V18.0922H53.8554V9.99311C53.8554 7.90468 52.7205 6.53751 50.5791 6.53751C48.566 6.53751 46.6589 8.00859 46.6589 10.2519V18.0942H44.1834V9.99515C44.1834 7.90671 43.022 6.53955 40.8806 6.53955C38.8675 6.53955 36.9604 8.01062 36.9604 10.2539V18.0963H34.4849V18.0922Z" fill="#7441E5"/>
<path d="M58.3193 14.8423C58.3193 12.4177 60.202 11.2054 63.1951 10.7673L67.6063 10.1215C68.2257 10.044 68.5354 9.76082 68.5354 9.3737V9.16791C68.5354 7.74981 67.1173 6.69235 65.0798 6.69235C63.4294 6.69235 61.9074 7.33824 61.4163 8.7054H58.9143C59.4053 6.53954 61.726 4.83618 65.1307 4.83618C68.5354 4.83618 71.0904 6.51305 71.0904 9.06603V18.0942H68.7432V17.4239C68.7432 16.8819 68.8206 16.4438 69.0529 15.9283L69.2587 15.5412L69.2077 15.5147L68.7432 16.1851C67.6083 17.7336 65.4404 18.4548 63.3255 18.4548C60.4098 18.4548 58.3214 16.9593 58.3214 14.8444L58.3193 14.8423ZM68.5598 13.7075V11.566L63.788 12.2629C61.8014 12.5726 60.7704 13.2694 60.7704 14.714C60.7704 15.8998 62.0867 16.727 63.8654 16.727C66.2635 16.727 68.5598 15.4638 68.5598 13.7095V13.7075Z" fill="#7441E5"/>
<path d="M73.5884 14.8423C73.5884 12.4177 75.471 11.2054 78.4641 10.7673L82.8753 10.1215C83.4947 10.044 83.8044 9.76082 83.8044 9.3737V9.16791C83.8044 7.74981 82.3863 6.69235 80.3488 6.69235C78.6984 6.69235 77.1764 7.33824 76.6854 8.7054H74.1833C74.6744 6.53954 76.9951 4.83618 80.3997 4.83618C83.8044 4.83618 86.3594 6.51305 86.3594 9.06603V18.0942H84.0122V17.4239C84.0122 16.8819 84.0897 16.4438 84.3219 15.9283L84.5277 15.5412L84.4768 15.5147L84.0122 16.1851C82.8773 17.7336 80.7094 18.4548 78.5945 18.4548C75.6789 18.4548 73.5904 16.9593 73.5904 14.8444L73.5884 14.8423ZM83.8289 13.7075V11.566L79.057 12.2629C77.0705 12.5726 76.0395 13.2694 76.0395 14.714C76.0395 15.8998 77.3557 16.727 79.1345 16.727C81.5326 16.727 83.8289 15.4638 83.8289 13.7095V13.7075Z" fill="#7441E5"/>
<path d="M89.3751 18.0922V5.1948H91.8506V5.84069C91.8506 6.4336 91.7732 6.84721 91.5674 7.41364L91.4126 7.74983L91.4635 7.77631L91.8506 7.26082C92.3926 6.35821 93.2687 5.66139 94.3262 5.27426C94.9456 5.06847 95.6159 4.91362 96.4146 4.86065L97.3437 4.83417V6.84721H96.0275C93.0344 6.84721 91.8486 9.03957 91.8486 11.2319V18.0942H89.373L89.3751 18.0922Z" fill="#7441E5"/>
<path d="M99.589 18.0922V0.0358276H102.065V11.1789H102.193L109.338 5.21923H112.201L104.618 11.4621L112.201 18.0922H109.338L102.166 11.7983H102.062V18.0922H99.5869H99.589Z" fill="#7441E5"/>
</svg>
