<svg width="158" height="33" viewBox="0 0 158 33" fill="none" xmlns="http://www.w3.org/2000/svg">
<g clip-path="url(#clip0_105_7)">
<path d="M19.8475 17.6584H12.1267L0 9.99024V0H7.56271L19.8475 7.85287V17.6584Z" fill="#7B36FF"/>
<path d="M12.1688 33H0V17.6584H12.1267L19.8106 25.3529L12.1688 33Z" fill="#7B36FF"/>
<path d="M39.21 11.5893C41.3444 11.5893 43.1679 12.3757 44.6752 13.9536C46.1877 15.5316 46.9413 17.4684 46.9413 19.7694C46.9413 22.0704 46.1824 23.9861 44.6752 25.5693C43.1626 27.1579 41.3391 27.9495 39.21 27.9495C36.849 27.9495 35.036 27.0681 33.7712 25.3055V27.5431H30.4141V5.77356H33.7712V14.2017C35.036 12.4601 36.849 11.5893 39.21 11.5893ZM35.173 23.3317C36.1059 24.2764 37.2758 24.7461 38.683 24.7461C40.0901 24.7461 41.2601 24.2764 42.1929 23.3317C43.1257 22.387 43.5895 21.1996 43.5895 19.7694C43.5895 18.3392 43.1257 17.1518 42.1929 16.2071C41.2601 15.2624 40.0901 14.7928 38.683 14.7928C37.2758 14.7928 36.1059 15.2624 35.173 16.2071C34.2402 17.1518 33.7764 18.3392 33.7764 19.7694C33.7764 21.1996 34.2402 22.387 35.173 23.3317Z" fill="#1D0B3A"/>
<path d="M52.6281 21.2048C52.8758 22.387 53.445 23.2947 54.3356 23.928C55.2263 24.5613 56.312 24.878 57.5979 24.878C59.3792 24.878 60.7126 24.2341 61.6032 22.9517L64.3701 24.5719C62.8364 26.8306 60.5703 27.96 57.5663 27.96C55.0418 27.96 52.997 27.1895 51.4476 25.6432C49.8929 24.0969 49.1182 22.1442 49.1182 19.7799C49.1182 17.4156 49.8823 15.5157 51.416 13.9483C52.9496 12.3809 54.9154 11.5999 57.3186 11.5999C59.5953 11.5999 61.4662 12.3968 62.926 13.9958C64.3859 15.5949 65.1184 17.5317 65.1184 19.8116C65.1184 20.1652 65.0763 20.6296 64.9919 21.2101H52.6281V21.2048ZM52.5965 18.4658H61.7297C61.5031 17.1992 60.9813 16.2493 60.1592 15.6055C59.3423 14.9616 58.3831 14.6397 57.2869 14.6397C56.0432 14.6397 55.0102 14.9827 54.1828 15.6688C53.3554 16.3549 52.8284 17.289 52.5965 18.4711V18.4658Z" fill="#1D0B3A"/>
<path d="M85.0291 11.5893C86.7893 11.5893 88.207 12.1593 89.2874 13.2992C90.3625 14.4391 90.9053 15.9749 90.9053 17.9011V27.5431H87.5482V18.1175C87.5482 17.0409 87.2794 16.2071 86.7419 15.6107C86.2043 15.0196 85.4665 14.7241 84.5337 14.7241C83.4954 14.7241 82.6733 15.0671 82.062 15.7479C81.4506 16.434 81.1449 17.4578 81.1449 18.83V27.5378H77.7878V18.1122C77.7878 17.0356 77.5349 16.2018 77.0289 15.6054C76.523 15.0144 75.801 14.7188 74.8682 14.7188C73.851 14.7188 73.0236 15.0671 72.3806 15.7585C71.7377 16.4551 71.4162 17.4737 71.4162 18.8247V27.5325H68.0591V11.9798H71.4162V13.848C72.4122 12.3334 73.8932 11.5787 75.859 11.5787C77.8247 11.5787 79.3162 12.3967 80.2701 14.038C81.303 12.402 82.8894 11.5787 85.0238 11.5787L85.0291 11.5893Z" fill="#1D0B3A"/>
<path d="M106.805 11.9957H110.163V27.5484H106.805V25.3107C105.541 27.0734 103.728 27.9548 101.367 27.9548C99.2322 27.9548 97.4087 27.1631 95.9014 25.5746C94.3889 23.9861 93.6353 22.0545 93.6353 19.7747C93.6353 17.4948 94.3889 15.5316 95.9014 13.9589C97.414 12.3809 99.2375 11.5946 101.367 11.5946C103.728 11.5946 105.541 12.4654 106.805 14.207V11.9957ZM98.389 23.337C99.3218 24.2816 100.492 24.7513 101.899 24.7513C103.306 24.7513 104.476 24.2816 105.409 23.337C106.342 22.3923 106.805 21.2049 106.805 19.7747C106.805 18.3445 106.342 17.1571 105.409 16.2124C104.476 15.2677 103.306 14.798 101.899 14.798C100.492 14.798 99.3218 15.2677 98.389 16.2124C97.4561 17.1571 96.9924 18.3445 96.9924 19.7747C96.9924 21.2049 97.4561 22.3923 98.389 23.337Z" fill="#1D0B3A"/>
<path d="M126.379 11.9957H129.736V27.5484H126.379V25.3107C125.114 27.0734 123.301 27.9548 120.94 27.9548C118.806 27.9548 116.982 27.1631 115.475 25.5746C113.963 23.9861 113.209 22.0545 113.209 19.7747C113.209 17.4948 113.963 15.5316 115.475 13.9589C116.988 12.3809 118.811 11.5946 120.94 11.5946C123.301 11.5946 125.114 12.4654 126.379 14.207V11.9957ZM117.963 23.337C118.896 24.2816 120.065 24.7513 121.473 24.7513C122.88 24.7513 124.05 24.2816 124.983 23.337C125.915 22.3923 126.379 21.2049 126.379 19.7747C126.379 18.3445 125.915 17.1571 124.983 16.2124C124.05 15.2677 122.88 14.798 121.473 14.798C120.065 14.798 118.896 15.2677 117.963 16.2124C117.03 17.1571 116.566 18.3445 116.566 19.7747C116.566 21.2049 117.03 22.3923 117.963 23.337Z" fill="#1D0B3A"/>
<path d="M137.004 14.6081C137.852 12.6818 139.449 11.716 141.789 11.716V15.3575C140.503 15.273 139.386 15.5791 138.432 16.2757C137.478 16.9724 137.004 18.1176 137.004 19.7114V27.5484H133.646V11.9957H137.004V14.6081Z" fill="#1D0B3A"/>
<path d="M158 27.5484H153.994L147.628 20.3605V27.5484H144.271V5.77356H147.628V18.8722L153.657 11.9957H157.757L150.922 19.6164L158.005 27.5484H158Z" fill="#1D0B3A"/>
</g>
<defs>
<clipPath id="clip0_105_7">
<rect width="158" height="33" fill="white"/>
</clipPath>
</defs>
</svg>
