<svg width="36" height="36" viewBox="0 0 36 36" fill="none" xmlns="http://www.w3.org/2000/svg">
<circle cx="18" cy="18" r="18" fill="white"/>
<circle cx="18" cy="18" r="17.5" stroke="#7B36FF" stroke-opacity="0.5"/>
<path fill-rule="evenodd" clip-rule="evenodd" d="M24.4 26C23.5163 26 22.8 25.2837 22.8 24.4C22.8 23.5163 23.5163 22.8 24.4 22.8C25.2837 22.8 26 23.5163 26 24.4C26 25.2837 25.2837 26 24.4 26ZM24.4 19.6C23.5163 19.6 22.8 18.8837 22.8 18C22.8 17.1163 23.5163 16.4 24.4 16.4C25.2837 16.4 26 17.1163 26 18C26 18.8837 25.2837 19.6 24.4 19.6ZM24.4 13.2C23.5163 13.2 22.8 12.4837 22.8 11.6C22.8 10.7163 23.5163 10 24.4 10C25.2837 10 26 10.7163 26 11.6C26 12.4837 25.2837 13.2 24.4 13.2ZM18 26C17.1163 26 16.4 25.2837 16.4 24.4C16.4 23.5163 17.1163 22.8 18 22.8C18.8837 22.8 19.6 23.5163 19.6 24.4C19.6 25.2837 18.8837 26 18 26ZM18 19.6C17.1163 19.6 16.4 18.8837 16.4 18C16.4 17.1163 17.1163 16.4 18 16.4C18.8837 16.4 19.6 17.1163 19.6 18C19.6 18.8837 18.8837 19.6 18 19.6ZM18 13.2C17.1163 13.2 16.4 12.4837 16.4 11.6C16.4 10.7163 17.1163 10 18 10C18.8837 10 19.6 10.7163 19.6 11.6C19.6 12.4837 18.8837 13.2 18 13.2ZM11.6 26C10.7163 26 10 25.2837 10 24.4C10 23.5163 10.7163 22.8 11.6 22.8C12.4837 22.8 13.2 23.5163 13.2 24.4C13.2 25.2837 12.4837 26 11.6 26ZM11.6 19.6C10.7163 19.6 10 18.8837 10 18C10 17.1163 10.7163 16.4 11.6 16.4C12.4837 16.4 13.2 17.1163 13.2 18C13.2 18.8837 12.4837 19.6 11.6 19.6ZM11.6 13.2C10.7163 13.2 10 12.4837 10 11.6C10 10.7163 10.7163 10 11.6 10C12.4837 10 13.2 10.7163 13.2 11.6C13.2 12.4837 12.4837 13.2 11.6 13.2Z" fill="black"/>
</svg>
