<svg width="45" height="45" viewBox="0 0 45 45" fill="none" xmlns="http://www.w3.org/2000/svg">
<path fill-rule="evenodd" clip-rule="evenodd" d="M22.5 45C10.0736 45 0 34.9264 0 22.5C0 10.0736 10.0736 0 22.5 0C34.9264 0 45 10.0736 45 22.5C45 34.9264 34.9264 45 22.5 45ZM22.5 40.9091C32.6671 40.9091 40.9091 32.6671 40.9091 22.5C40.9091 12.3329 32.6671 4.09091 22.5 4.09091C12.3329 4.09091 4.09091 12.3329 4.09091 22.5C4.09091 32.6671 12.3329 40.9091 22.5 40.9091ZM14.3182 32.7273V12.2727C14.3182 10.6662 16.0854 9.6867 17.4477 10.5382L33.8114 20.7655C35.0932 21.5666 35.0932 23.4334 33.8114 24.2345L17.4477 34.4618C16.0854 35.3133 14.3182 34.3338 14.3182 32.7273ZM28.8679 22.5L18.4091 15.9632V29.0368L28.8679 22.5Z" fill="#1D0B3A"/>
</svg>
