<svg width="28" height="28" viewBox="0 0 28 28" fill="none" xmlns="http://www.w3.org/2000/svg">
<path fill-rule="evenodd" clip-rule="evenodd" d="M14 28C6.26801 28 0 21.732 0 14C0 6.26801 6.26801 0 14 0C21.732 0 28 6.26801 28 14C28 21.732 21.732 28 14 28ZM14 25.4545C20.3262 25.4545 25.4545 20.3262 25.4545 14C25.4545 7.67383 20.3262 2.54545 14 2.54545C7.67383 2.54545 2.54545 7.67383 2.54545 14C2.54545 20.3262 7.67383 25.4545 14 25.4545ZM16.0183 15.2727H7.63636V12.7273H16.0183L13.1 9.80904L14.9 8.00914L20.8908 14L14.9 19.9909L13.1 18.191L16.0183 15.2727Z" fill="#1D0B3A"/>
</svg>
