<svg width="662" height="158" viewBox="0 0 662 158" fill="none" xmlns="http://www.w3.org/2000/svg">
<g clip-path="url(#clip0_189_46)">
<rect width="1325" height="158" fill="white"/>
<path d="M23.0797 117H10.1197L44.3197 33H59.9197L94.1197 117H81.0397L71.9197 94.92H32.1997L23.0797 117ZM51.7597 46.08L36.3997 84.48H67.8397L52.4797 46.08H51.7597ZM141.588 117H128.748V33H165.708C184.308 33 194.748 40.92 194.748 57.48C194.748 70.56 187.908 78.48 175.788 80.76L194.028 117H181.068L163.428 82.08H141.588V117ZM141.588 43.56V71.52H165.108C176.028 71.52 182.028 67.32 182.028 57.48C182.028 47.64 176.028 43.56 165.108 43.56H141.588ZM232.363 118.68C214.603 118.68 202.243 106.2 202.243 88.56V85.2C202.243 68.16 214.963 55.32 232.363 55.32C250.003 55.32 262.363 67.68 262.363 85.2V89.28H215.203V90.24C215.203 101.04 222.163 109.2 232.363 109.2C239.683 109.2 245.683 104.76 248.323 97.2H261.163C258.163 110.4 247.003 118.68 232.363 118.68ZM215.323 80.88H249.283C247.963 71.28 241.243 64.68 232.363 64.68C223.723 64.68 216.643 71.16 215.323 80.88ZM284.772 117H271.932V56.76H284.772V58.92C284.772 61.08 284.292 62.88 283.212 65.4L282.612 66.6L282.972 66.84L284.772 64.44C288.612 58.68 295.692 55.32 302.772 55.32C312.012 55.32 318.732 59.16 322.212 65.88H322.692C326.892 59.4 334.452 55.32 343.212 55.32C357.492 55.32 365.652 64.44 365.652 80.28V117H352.812V80.04C352.812 71.16 348.612 64.68 340.212 64.68C332.292 64.68 325.212 71.04 325.212 81V117H312.372V80.04C312.372 71.16 308.172 64.68 299.652 64.68C291.972 64.68 284.772 71.04 284.772 81V117ZM395.749 118.68C383.389 118.68 374.749 111.6 374.749 101.64C374.749 90.12 383.149 84.72 395.749 82.68L412.909 79.8C415.309 79.44 416.629 78.36 416.629 76.68V75.84C416.629 70.2 411.229 65.76 403.669 65.76C397.069 65.76 391.549 68.76 389.749 74.28H376.909C378.589 63.72 388.789 55.32 404.029 55.32C419.269 55.32 429.949 63.12 429.949 75.36V117H417.829V114.24C417.829 111.84 418.189 109.8 419.269 107.52L420.109 105.6L419.989 105.48L417.829 108.72C413.269 115.56 404.149 118.68 395.749 118.68ZM399.109 109.08C408.109 109.08 416.629 103.92 416.629 96.48V87.72L398.749 90.72C391.309 92.04 387.469 94.92 387.469 100.8C387.469 105.72 392.389 109.08 399.109 109.08ZM456.1 117H443.26V57H456.1V59.52C456.1 62.28 455.74 64.2 454.78 66.84L454.18 68.4L454.42 68.52L456.1 66C458.38 62.04 462.1 58.8 466.3 57.12C468.7 56.28 471.34 55.68 474.34 55.44L478.18 55.32V66.6H472.18C460.9 66.6 456.1 75.72 456.1 85.32V117ZM500.748 117H487.908V33H500.748V84.72H501.348L529.308 57.12H543.468L513.828 86.16L543.468 117H529.308L501.348 87.72H500.748V117ZM569.421 118.68C557.061 118.68 548.421 111.6 548.421 101.64C548.421 90.12 556.821 84.72 569.421 82.68L586.581 79.8C588.981 79.44 590.301 78.36 590.301 76.68V75.84C590.301 70.2 584.901 65.76 577.341 65.76C570.741 65.76 565.221 68.76 563.421 74.28H550.581C552.261 63.72 562.461 55.32 577.701 55.32C592.941 55.32 603.621 63.12 603.621 75.36V117H591.501V114.24C591.501 111.84 591.861 109.8 592.941 107.52L593.781 105.6L593.661 105.48L591.501 108.72C586.941 115.56 577.821 118.68 569.421 118.68ZM572.781 109.08C581.781 109.08 590.301 103.92 590.301 96.48V87.72L572.421 90.72C564.981 92.04 561.141 94.92 561.141 100.8C561.141 105.72 566.061 109.08 572.781 109.08ZM650.035 118.68C641.995 118.68 634.075 114.24 630.475 106.44L628.795 103.08L628.555 103.2L628.915 104.76C629.755 107.76 630.475 109.68 630.475 112.08V117H617.635V33H630.475V66.6H630.955C634.555 59.16 642.115 55.2 650.035 55.2C665.635 55.2 676.075 67.32 676.075 85.56V88.56C676.075 105.96 665.635 118.68 650.035 118.68ZM647.515 109.32C656.035 109.32 663.355 101.16 663.355 88.68V85.2C663.355 72.72 655.915 64.68 647.275 64.68C637.675 64.68 630.715 72.24 630.715 83.64V90.24C630.715 101.52 637.915 109.32 647.515 109.32ZM699.73 117H687.01V33H699.73V117ZM740.488 118.68C722.728 118.68 710.368 106.2 710.368 88.56V85.2C710.368 68.16 723.088 55.32 740.488 55.32C758.128 55.32 770.488 67.68 770.488 85.2V89.28H723.328V90.24C723.328 101.04 730.288 109.2 740.488 109.2C747.808 109.2 753.808 104.76 756.448 97.2H769.288C766.288 110.4 755.128 118.68 740.488 118.68ZM723.448 80.88H757.408C756.088 71.28 749.368 64.68 740.488 64.68C731.848 64.68 724.768 71.16 723.448 80.88ZM820.104 117H807.264V33H844.224C862.824 33 873.264 41.52 873.264 58.08C873.264 74.64 862.464 83.28 844.224 83.28H820.104V117ZM820.104 43.56V72.72H843.624C854.544 72.72 860.544 67.92 860.544 58.08C860.544 48.24 854.544 43.56 843.624 43.56H820.104ZM897.897 117H885.057V57H897.897V59.52C897.897 62.28 897.537 64.2 896.577 66.84L895.977 68.4L896.217 68.52L897.897 66C900.177 62.04 903.897 58.8 908.097 57.12C910.497 56.28 913.137 55.68 916.137 55.44L919.977 55.32V66.6H913.977C902.697 66.6 897.897 75.72 897.897 85.32V117ZM952.598 118.68C934.838 118.68 922.478 106.2 922.478 88.56V85.2C922.478 68.16 935.198 55.32 952.598 55.32C970.238 55.32 982.598 67.68 982.598 85.2V89.28H935.438V90.24C935.438 101.04 942.398 109.2 952.598 109.2C959.918 109.2 965.918 104.76 968.558 97.2H981.398C978.398 110.4 967.238 118.68 952.598 118.68ZM935.558 80.88H969.518C968.198 71.28 961.478 64.68 952.598 64.68C943.958 64.68 936.878 71.16 935.558 80.88ZM1016.74 118.68C1001.14 118.68 990.823 112.44 989.743 102H1003.18C1004.62 106.68 1009.54 109.44 1016.74 109.44C1024.9 109.44 1030.66 105.84 1030.66 100.8C1030.66 96.84 1028.02 94.44 1019.02 92.64L1008.58 90.6C996.703 88.2 990.943 82.68 990.943 73.68C990.943 62.4 1000.9 55.32 1016.74 55.32C1031.62 55.32 1041.22 61.44 1041.94 71.88H1029.22C1028.14 67.32 1023.46 64.56 1016.62 64.56C1009.66 64.56 1003.9 67.44 1003.9 72.96C1003.9 77.64 1007.02 79.32 1015.18 81.12L1025.5 83.04C1037.74 85.44 1043.86 91.2 1043.86 99.72C1043.86 111.36 1033.3 118.68 1016.74 118.68ZM1080.92 118.68C1063.16 118.68 1050.8 106.2 1050.8 88.56V85.2C1050.8 68.16 1063.52 55.32 1080.92 55.32C1098.56 55.32 1110.92 67.68 1110.92 85.2V89.28H1063.76V90.24C1063.76 101.04 1070.72 109.2 1080.92 109.2C1088.24 109.2 1094.24 104.76 1096.88 97.2H1109.72C1106.72 110.4 1095.56 118.68 1080.92 118.68ZM1063.88 80.88H1097.84C1096.52 71.28 1089.8 64.68 1080.92 64.68C1072.28 64.68 1065.2 71.16 1063.88 80.88ZM1133.33 117H1120.49V57H1133.33V59.4C1133.33 61.68 1132.85 63.48 1131.77 66L1131.17 67.2L1131.53 67.44L1133.33 65.04C1137.29 59.16 1144.25 55.32 1152.05 55.32C1166.81 55.32 1174.97 64.44 1174.97 80.88V117H1162.13V80.52C1162.13 70.32 1157.69 64.68 1148.93 64.68C1140.29 64.68 1133.33 71.4 1133.33 81.72V117ZM1215.34 118.68C1197.7 118.68 1185.1 106.2 1185.1 88.56V85.2C1185.1 68.16 1198.06 55.32 1215.34 55.32C1231.78 55.32 1243.9 65.28 1244.38 79.32H1231.66C1231.06 70.32 1223.86 64.68 1215.46 64.68C1205.86 64.68 1198.06 72.6 1198.06 84.12V90C1198.06 101.28 1205.62 109.2 1215.34 109.2C1223.86 109.2 1231.06 103.56 1231.66 94.56H1244.38C1243.9 108.96 1232.02 118.68 1215.34 118.68ZM1281.78 118.68C1264.02 118.68 1251.66 106.2 1251.66 88.56V85.2C1251.66 68.16 1264.38 55.32 1281.78 55.32C1299.42 55.32 1311.78 67.68 1311.78 85.2V89.28H1264.62V90.24C1264.62 101.04 1271.58 109.2 1281.78 109.2C1289.1 109.2 1295.1 104.76 1297.74 97.2H1310.58C1307.58 110.4 1296.42 118.68 1281.78 118.68ZM1264.74 80.88H1298.7C1297.38 71.28 1290.66 64.68 1281.78 64.68C1273.14 64.68 1266.06 71.16 1264.74 80.88Z" fill="black"/>
</g>
<defs>
<clipPath id="clip0_189_46">
<rect width="1325" height="158" fill="white"/>
</clipPath>
</defs>
</svg>
