<svg width="662" height="158" viewBox="0 0 662 158" fill="none" xmlns="http://www.w3.org/2000/svg">
<g clip-path="url(#clip0_189_46)">
<rect width="1325" height="158" transform="translate(-663)" fill="white"/>
<path d="M-639.92 117H-652.88L-618.68 33H-603.08L-568.88 117H-581.96L-591.08 94.92H-630.8L-639.92 117ZM-611.24 46.08L-626.6 84.48H-595.16L-610.52 46.08H-611.24ZM-521.412 117H-534.252V33H-497.292C-478.692 33 -468.252 40.92 -468.252 57.48C-468.252 70.56 -475.092 78.48 -487.212 80.76L-468.972 117H-481.932L-499.572 82.08H-521.412V117ZM-521.412 43.56V71.52H-497.892C-486.972 71.52 -480.972 67.32 -480.972 57.48C-480.972 47.64 -486.972 43.56 -497.892 43.56H-521.412ZM-430.637 118.68C-448.397 118.68 -460.757 106.2 -460.757 88.56V85.2C-460.757 68.16 -448.037 55.32 -430.637 55.32C-412.997 55.32 -400.637 67.68 -400.637 85.2V89.28H-447.797V90.24C-447.797 101.04 -440.837 109.2 -430.637 109.2C-423.317 109.2 -417.317 104.76 -414.677 97.2H-401.837C-404.837 110.4 -415.997 118.68 -430.637 118.68ZM-447.677 80.88H-413.717C-415.037 71.28 -421.757 64.68 -430.637 64.68C-439.277 64.68 -446.357 71.16 -447.677 80.88ZM-378.228 117H-391.068V56.76H-378.228V58.92C-378.228 61.08 -378.708 62.88 -379.788 65.4L-380.388 66.6L-380.028 66.84L-378.228 64.44C-374.388 58.68 -367.308 55.32 -360.228 55.32C-350.988 55.32 -344.268 59.16 -340.788 65.88H-340.308C-336.108 59.4 -328.548 55.32 -319.788 55.32C-305.508 55.32 -297.348 64.44 -297.348 80.28V117H-310.188V80.04C-310.188 71.16 -314.388 64.68 -322.788 64.68C-330.708 64.68 -337.788 71.04 -337.788 81V117H-350.628V80.04C-350.628 71.16 -354.828 64.68 -363.348 64.68C-371.028 64.68 -378.228 71.04 -378.228 81V117ZM-267.251 118.68C-279.611 118.68 -288.251 111.6 -288.251 101.64C-288.251 90.12 -279.851 84.72 -267.251 82.68L-250.091 79.8C-247.691 79.44 -246.371 78.36 -246.371 76.68V75.84C-246.371 70.2 -251.771 65.76 -259.331 65.76C-265.931 65.76 -271.451 68.76 -273.251 74.28H-286.091C-284.411 63.72 -274.211 55.32 -258.971 55.32C-243.731 55.32 -233.051 63.12 -233.051 75.36V117H-245.171V114.24C-245.171 111.84 -244.811 109.8 -243.731 107.52L-242.891 105.6L-243.011 105.48L-245.171 108.72C-249.731 115.56 -258.851 118.68 -267.251 118.68ZM-263.891 109.08C-254.891 109.08 -246.371 103.92 -246.371 96.48V87.72L-264.251 90.72C-271.691 92.04 -275.531 94.92 -275.531 100.8C-275.531 105.72 -270.611 109.08 -263.891 109.08ZM-206.9 117H-219.74V57H-206.9V59.52C-206.9 62.28 -207.26 64.2 -208.22 66.84L-208.82 68.4L-208.58 68.52L-206.9 66C-204.62 62.04 -200.9 58.8 -196.7 57.12C-194.3 56.28 -191.66 55.68 -188.66 55.44L-184.82 55.32V66.6H-190.82C-202.1 66.6 -206.9 75.72 -206.9 85.32V117ZM-162.252 117H-175.092V33H-162.252V84.72H-161.652L-133.692 57.12H-119.532L-149.172 86.16L-119.532 117H-133.692L-161.652 87.72H-162.252V117ZM-93.5791 118.68C-105.939 118.68 -114.579 111.6 -114.579 101.64C-114.579 90.12 -106.179 84.72 -93.5791 82.68L-76.4191 79.8C-74.0191 79.44 -72.6991 78.36 -72.6991 76.68V75.84C-72.6991 70.2 -78.0991 65.76 -85.6591 65.76C-92.2591 65.76 -97.7791 68.76 -99.5791 74.28H-112.419C-110.739 63.72 -100.539 55.32 -85.2991 55.32C-70.0591 55.32 -59.3791 63.12 -59.3791 75.36V117H-71.4991V114.24C-71.4991 111.84 -71.1391 109.8 -70.0591 107.52L-69.2191 105.6L-69.3391 105.48L-71.4991 108.72C-76.0591 115.56 -85.1791 118.68 -93.5791 118.68ZM-90.2191 109.08C-81.2191 109.08 -72.6991 103.92 -72.6991 96.48V87.72L-90.5791 90.72C-98.0191 92.04 -101.859 94.92 -101.859 100.8C-101.859 105.72 -96.9391 109.08 -90.2191 109.08ZM-12.9653 118.68C-21.0053 118.68 -28.9253 114.24 -32.5253 106.44L-34.2053 103.08L-34.4453 103.2L-34.0853 104.76C-33.2453 107.76 -32.5253 109.68 -32.5253 112.08V117H-45.3653V33H-32.5253V66.6H-32.0453C-28.4453 59.16 -20.8853 55.2 -12.9653 55.2C2.63469 55.2 13.0747 67.32 13.0747 85.56V88.56C13.0747 105.96 2.63469 118.68 -12.9653 118.68ZM-15.4853 109.32C-6.96531 109.32 0.354691 101.16 0.354691 88.68V85.2C0.354691 72.72 -7.08531 64.68 -15.7253 64.68C-25.3253 64.68 -32.2853 72.24 -32.2853 83.64V90.24C-32.2853 101.52 -25.0853 109.32 -15.4853 109.32ZM36.7297 117H24.0097V33H36.7297V117ZM77.4884 118.68C59.7284 118.68 47.3684 106.2 47.3684 88.56V85.2C47.3684 68.16 60.0884 55.32 77.4884 55.32C95.1284 55.32 107.488 67.68 107.488 85.2V89.28H60.3284V90.24C60.3284 101.04 67.2884 109.2 77.4884 109.2C84.8084 109.2 90.8084 104.76 93.4484 97.2H106.288C103.288 110.4 92.1284 118.68 77.4884 118.68ZM60.4484 80.88H94.4084C93.0884 71.28 86.3684 64.68 77.4884 64.68C68.8484 64.68 61.7684 71.16 60.4484 80.88ZM157.104 117H144.264V33H181.224C199.824 33 210.264 41.52 210.264 58.08C210.264 74.64 199.464 83.28 181.224 83.28H157.104V117ZM157.104 43.56V72.72H180.624C191.544 72.72 197.544 67.92 197.544 58.08C197.544 48.24 191.544 43.56 180.624 43.56H157.104ZM234.897 117H222.057V57H234.897V59.52C234.897 62.28 234.537 64.2 233.577 66.84L232.977 68.4L233.217 68.52L234.897 66C237.177 62.04 240.897 58.8 245.097 57.12C247.497 56.28 250.137 55.68 253.137 55.44L256.977 55.32V66.6H250.977C239.697 66.6 234.897 75.72 234.897 85.32V117ZM289.598 118.68C271.838 118.68 259.478 106.2 259.478 88.56V85.2C259.478 68.16 272.198 55.32 289.598 55.32C307.238 55.32 319.598 67.68 319.598 85.2V89.28H272.438V90.24C272.438 101.04 279.398 109.2 289.598 109.2C296.918 109.2 302.918 104.76 305.558 97.2H318.398C315.398 110.4 304.238 118.68 289.598 118.68ZM272.558 80.88H306.518C305.198 71.28 298.478 64.68 289.598 64.68C280.958 64.68 273.878 71.16 272.558 80.88ZM353.743 118.68C338.143 118.68 327.823 112.44 326.743 102H340.183C341.623 106.68 346.543 109.44 353.743 109.44C361.903 109.44 367.663 105.84 367.663 100.8C367.663 96.84 365.023 94.44 356.023 92.64L345.583 90.6C333.703 88.2 327.943 82.68 327.943 73.68C327.943 62.4 337.903 55.32 353.743 55.32C368.623 55.32 378.223 61.44 378.943 71.88H366.223C365.143 67.32 360.463 64.56 353.623 64.56C346.663 64.56 340.903 67.44 340.903 72.96C340.903 77.64 344.023 79.32 352.183 81.12L362.503 83.04C374.743 85.44 380.863 91.2 380.863 99.72C380.863 111.36 370.303 118.68 353.743 118.68ZM417.918 118.68C400.158 118.68 387.798 106.2 387.798 88.56V85.2C387.798 68.16 400.518 55.32 417.918 55.32C435.558 55.32 447.918 67.68 447.918 85.2V89.28H400.758V90.24C400.758 101.04 407.718 109.2 417.918 109.2C425.238 109.2 431.238 104.76 433.878 97.2H446.718C443.718 110.4 432.558 118.68 417.918 118.68ZM400.878 80.88H434.838C433.518 71.28 426.798 64.68 417.918 64.68C409.278 64.68 402.198 71.16 400.878 80.88ZM470.326 117H457.486V57H470.326V59.4C470.326 61.68 469.846 63.48 468.766 66L468.166 67.2L468.526 67.44L470.326 65.04C474.286 59.16 481.246 55.32 489.046 55.32C503.806 55.32 511.966 64.44 511.966 80.88V117H499.126V80.52C499.126 70.32 494.686 64.68 485.926 64.68C477.286 64.68 470.326 71.4 470.326 81.72V117ZM552.335 118.68C534.695 118.68 522.095 106.2 522.095 88.56V85.2C522.095 68.16 535.055 55.32 552.335 55.32C568.775 55.32 580.895 65.28 581.375 79.32H568.655C568.055 70.32 560.855 64.68 552.455 64.68C542.855 64.68 535.055 72.6 535.055 84.12V90C535.055 101.28 542.615 109.2 552.335 109.2C560.855 109.2 568.055 103.56 568.655 94.56H581.375C580.895 108.96 569.015 118.68 552.335 118.68ZM618.778 118.68C601.018 118.68 588.658 106.2 588.658 88.56V85.2C588.658 68.16 601.378 55.32 618.778 55.32C636.418 55.32 648.778 67.68 648.778 85.2V89.28H601.618V90.24C601.618 101.04 608.578 109.2 618.778 109.2C626.098 109.2 632.098 104.76 634.738 97.2H647.578C644.578 110.4 633.418 118.68 618.778 118.68ZM601.738 80.88H635.698C634.378 71.28 627.658 64.68 618.778 64.68C610.138 64.68 603.058 71.16 601.738 80.88Z" fill="black"/>
</g>
<defs>
<clipPath id="clip0_189_46">
<rect width="1325" height="158" fill="white" transform="translate(-663)"/>
</clipPath>
</defs>
</svg>
