<svg width="24" height="23" viewBox="0 0 24 23" fill="none" xmlns="http://www.w3.org/2000/svg">
<path d="M18.5557 22.9616C18.2705 22.9616 17.9867 22.8741 17.7425 22.6997L12.0002 18.5816L6.25781 22.6997C5.76863 23.0499 5.11216 23.0499 4.62581 22.6941C4.13946 22.3419 3.93475 21.7164 4.11687 21.1454L6.25852 14.2334L0.5677 10.2233C0.0841709 9.86681 -0.117005 9.23999 0.0679356 8.66823C0.254288 8.09787 0.785111 7.71034 1.38511 7.70611L8.43334 7.69552L10.6773 0.955058C10.8665 0.383999 11.3995 0 12.0002 0C12.6009 0 13.1338 0.384705 13.3237 0.955058L15.5296 7.69552L22.6138 7.70611C23.2159 7.71034 23.7474 8.09858 23.9317 8.66823C24.1173 9.23999 23.9161 9.86681 23.4319 10.2233L17.7411 14.2334L19.8827 21.1454C20.0663 21.7164 19.8594 22.3419 19.3745 22.6941C19.1296 22.8734 18.843 22.9616 18.5557 22.9616Z" fill="#FFAC33"/>
</svg>
