<svg width="13" height="13" viewBox="0 0 13 13" fill="none" xmlns="http://www.w3.org/2000/svg">
<path d="M0.468692 11.4706C0.17634 11.7641 0.177216 12.239 0.47065 12.5313C0.764083 12.8237 1.23896 12.8228 1.53131 12.5294L0.468692 11.4706ZM12.7092 0.998845C12.7085 0.584633 12.3721 0.249466 11.9579 0.250231L5.20787 0.262689C4.79366 0.263453 4.45849 0.599859 4.45926 1.01407C4.46002 1.42828 4.79643 1.76345 5.21064 1.76269L11.2106 1.75161L11.2217 7.7516C11.2225 8.16582 11.5589 8.50098 11.9731 8.50022C12.3873 8.49945 12.7225 8.16305 12.7217 7.74883L12.7092 0.998845ZM1.53131 12.5294L12.4906 1.52958L11.4279 0.470879L0.468692 11.4706L1.53131 12.5294Z" fill="black"/>
</svg>
