<svg width="86" height="61" viewBox="0 0 86 61" fill="none" xmlns="http://www.w3.org/2000/svg">
<path d="M3.73098 20.2665L1.63922 2.00011L16.7188 12.7962L8.83814 14.1262L3.73098 20.2665Z" fill="#0073DD" stroke="white" stroke-linecap="square"/>
<rect x="21" y="21" width="65" height="40" fill="#0073DD"/>
<path d="M38.0121 34.9091H40.7479V44.0369C40.7479 44.8807 40.5582 45.6136 40.179 46.2358C39.804 46.858 39.282 47.3374 38.6129 47.674C37.9439 48.0107 37.1662 48.179 36.2798 48.179C35.4915 48.179 34.7756 48.0405 34.1321 47.7635C33.4929 47.4822 32.9858 47.0561 32.6108 46.4851C32.2358 45.9098 32.0504 45.1875 32.0547 44.3182H34.8097C34.8182 44.6634 34.8885 44.9595 35.0206 45.2067C35.157 45.4496 35.3423 45.6371 35.5767 45.7692C35.8153 45.897 36.0966 45.9609 36.4205 45.9609C36.7614 45.9609 37.049 45.8885 37.2834 45.7436C37.522 45.5945 37.7031 45.3771 37.8267 45.0916C37.9503 44.8061 38.0121 44.4545 38.0121 44.0369V34.9091ZM47.4212 48.1918C46.4283 48.1918 45.5696 47.9808 44.8452 47.5589C44.125 47.1328 43.5689 46.5405 43.1768 45.782C42.7848 45.0192 42.5888 44.1349 42.5888 43.1293C42.5888 42.1151 42.7848 41.2287 43.1768 40.4702C43.5689 39.7074 44.125 39.1151 44.8452 38.6932C45.5696 38.267 46.4283 38.054 47.4212 38.054C48.4141 38.054 49.2706 38.267 49.9908 38.6932C50.7152 39.1151 51.2734 39.7074 51.6655 40.4702C52.0575 41.2287 52.2536 42.1151 52.2536 43.1293C52.2536 44.1349 52.0575 45.0192 51.6655 45.782C51.2734 46.5405 50.7152 47.1328 49.9908 47.5589C49.2706 47.9808 48.4141 48.1918 47.4212 48.1918ZM47.4339 46.0824C47.8857 46.0824 48.2628 45.9545 48.5653 45.6989C48.8679 45.4389 49.0959 45.0852 49.2493 44.6378C49.407 44.1903 49.4858 43.6811 49.4858 43.1101C49.4858 42.5391 49.407 42.0298 49.2493 41.5824C49.0959 41.1349 48.8679 40.7812 48.5653 40.5213C48.2628 40.2614 47.8857 40.1314 47.4339 40.1314C46.978 40.1314 46.5945 40.2614 46.2834 40.5213C45.9766 40.7812 45.7443 41.1349 45.5866 41.5824C45.4332 42.0298 45.3565 42.5391 45.3565 43.1101C45.3565 43.6811 45.4332 44.1903 45.5866 44.6378C45.7443 45.0852 45.9766 45.4389 46.2834 45.6989C46.5945 45.9545 46.978 46.0824 47.4339 46.0824ZM56.7472 42.3239V48H54.0241V34.9091H56.6705V39.9141H56.7855C57.0071 39.3345 57.3651 38.8807 57.8594 38.5526C58.3537 38.2202 58.9737 38.054 59.7195 38.054C60.4013 38.054 60.9957 38.2031 61.5028 38.5014C62.0142 38.7955 62.4105 39.2195 62.6918 39.7734C62.9773 40.3232 63.1179 40.9815 63.1136 41.7486V48H60.3906V42.2344C60.3949 41.6293 60.2415 41.1584 59.9304 40.8217C59.6236 40.4851 59.1932 40.3168 58.6392 40.3168C58.2685 40.3168 57.9403 40.3956 57.6548 40.5533C57.3736 40.7109 57.152 40.9411 56.9901 41.2436C56.8324 41.5419 56.7514 41.902 56.7472 42.3239ZM67.9796 42.3239V48H65.2566V38.1818H67.8517V39.9141H67.9668C68.1841 39.343 68.5485 38.8913 69.0598 38.5589C69.5712 38.2223 70.1912 38.054 70.9199 38.054C71.6017 38.054 72.1962 38.2031 72.7033 38.5014C73.2104 38.7997 73.6046 39.2259 73.8858 39.7798C74.1671 40.3295 74.3077 40.9858 74.3077 41.7486V48H71.5847V42.2344C71.589 41.6335 71.4355 41.1648 71.1245 40.8281C70.8134 40.4872 70.3851 40.3168 69.8397 40.3168C69.4732 40.3168 69.1493 40.3956 68.8681 40.5533C68.5911 40.7109 68.3738 40.9411 68.2161 41.2436C68.0627 41.5419 67.9838 41.902 67.9796 42.3239Z" fill="white"/>
</svg>
