<svg width="86" height="61" viewBox="0 0 86 61" fill="none" xmlns="http://www.w3.org/2000/svg">
<path d="M3.73098 20.2665L1.63922 2.00011L16.7188 12.7962L8.83814 14.1262L3.73098 20.2665Z" fill="#C2FF00" stroke="white" stroke-linecap="square"/>
<rect x="21" y="21" width="65" height="40" fill="#C2FF00"/>
<path d="M30.9177 34.9091H33.3147L37.4823 45.0852H37.6357L41.8034 34.9091H44.2004V48H42.3211V38.527H42.1997L38.3389 47.9808H36.7792L32.9184 38.5206H32.797V48H30.9177V34.9091ZM49.7758 48.2173C49.1537 48.2173 48.5912 48.1023 48.0883 47.8722C47.5855 47.6378 47.1871 47.299 46.893 46.8558C46.6032 46.4126 46.4584 45.8693 46.4584 45.2259C46.4584 44.6719 46.5649 44.2159 46.778 43.858C46.991 43.5 47.2787 43.2166 47.6409 43.0078C48.0031 42.799 48.4079 42.6413 48.8554 42.5348C49.3028 42.4283 49.7588 42.3473 50.2233 42.2919C50.8113 42.2237 51.2886 42.1683 51.6551 42.1257C52.0216 42.0788 52.2879 42.0043 52.4541 41.902C52.6203 41.7997 52.7034 41.6335 52.7034 41.4034V41.3587C52.7034 40.8004 52.5457 40.3679 52.2304 40.0611C51.9193 39.7543 51.4548 39.6009 50.8369 39.6009C50.1934 39.6009 49.6863 39.7436 49.3156 40.0291C48.9491 40.3104 48.6956 40.6236 48.555 40.9688L46.7588 40.5597C46.9719 39.9631 47.2829 39.4815 47.692 39.1151C48.1054 38.7443 48.5805 38.4759 49.1175 38.3097C49.6544 38.1392 50.219 38.054 50.8113 38.054C51.2034 38.054 51.6189 38.1009 52.0578 38.1946C52.501 38.2841 52.9143 38.4503 53.2979 38.6932C53.6856 38.9361 54.0031 39.2834 54.2503 39.7351C54.4974 40.1825 54.621 40.7642 54.621 41.4801V48H52.7545V46.6577H52.6778C52.5542 46.9048 52.3689 47.1477 52.1217 47.3864C51.8746 47.625 51.5571 47.8232 51.1693 47.9808C50.7815 48.1385 50.317 48.2173 49.7758 48.2173ZM50.1913 46.6832C50.7197 46.6832 51.1714 46.5788 51.5464 46.37C51.9257 46.1612 52.2133 45.8885 52.4094 45.5518C52.6096 45.2109 52.7098 44.8466 52.7098 44.4588V43.1932C52.6416 43.2614 52.5095 43.3253 52.3135 43.3849C52.1217 43.4403 51.9023 43.4893 51.6551 43.532C51.4079 43.5703 51.1672 43.6065 50.9328 43.6406C50.6984 43.6705 50.5024 43.696 50.3447 43.7173C49.974 43.7642 49.6352 43.843 49.3284 43.9538C49.0258 44.0646 48.7829 44.2244 48.5997 44.4332C48.4207 44.6378 48.3312 44.9105 48.3312 45.2514C48.3312 45.7244 48.5059 46.0824 48.8554 46.3253C49.2048 46.5639 49.6501 46.6832 50.1913 46.6832ZM57.1666 48V38.1818H59.0139V39.7415H59.1162C59.2952 39.2131 59.6105 38.7976 60.0622 38.495C60.5182 38.1882 61.0338 38.0348 61.6091 38.0348C61.7284 38.0348 61.8691 38.0391 62.031 38.0476C62.1972 38.0561 62.3271 38.0668 62.4209 38.0795V39.9077C62.3442 39.8864 62.2078 39.8629 62.0118 39.8374C61.8158 39.8075 61.6198 39.7926 61.4237 39.7926C60.972 39.7926 60.5693 39.8885 60.2156 40.0803C59.8662 40.2678 59.5892 40.5298 59.3847 40.8665C59.1801 41.1989 59.0779 41.5781 59.0779 42.0043V48H57.1666ZM64.0748 48V38.1818H65.9861V48H64.0748ZM65.04 36.6669C64.7077 36.6669 64.4221 36.5561 64.1835 36.3345C63.9491 36.1087 63.8319 35.8402 63.8319 35.5291C63.8319 35.2138 63.9491 34.9453 64.1835 34.7237C64.4221 34.4979 64.7077 34.3849 65.04 34.3849C65.3724 34.3849 65.6558 34.4979 65.8902 34.7237C66.1288 34.9453 66.2481 35.2138 66.2481 35.5291C66.2481 35.8402 66.1288 36.1087 65.8902 36.3345C65.6558 36.5561 65.3724 36.6669 65.04 36.6669ZM71.4145 48.2173C70.7923 48.2173 70.2298 48.1023 69.727 47.8722C69.2242 47.6378 68.8257 47.299 68.5317 46.8558C68.2419 46.4126 68.097 45.8693 68.097 45.2259C68.097 44.6719 68.2036 44.2159 68.4166 43.858C68.6297 43.5 68.9173 43.2166 69.2796 43.0078C69.6418 42.799 70.0466 42.6413 70.4941 42.5348C70.9415 42.4283 71.3975 42.3473 71.8619 42.2919C72.45 42.2237 72.9273 42.1683 73.2938 42.1257C73.6602 42.0788 73.9266 42.0043 74.0928 41.902C74.259 41.7997 74.3421 41.6335 74.3421 41.4034V41.3587C74.3421 40.8004 74.1844 40.3679 73.8691 40.0611C73.558 39.7543 73.0935 39.6009 72.4756 39.6009C71.8321 39.6009 71.325 39.7436 70.9543 40.0291C70.5878 40.3104 70.3343 40.6236 70.1936 40.9688L68.3975 40.5597C68.6105 39.9631 68.9216 39.4815 69.3307 39.1151C69.7441 38.7443 70.2192 38.4759 70.7561 38.3097C71.2931 38.1392 71.8577 38.054 72.45 38.054C72.8421 38.054 73.2575 38.1009 73.6965 38.1946C74.1396 38.2841 74.553 38.4503 74.9365 38.6932C75.3243 38.9361 75.6418 39.2834 75.8889 39.7351C76.1361 40.1825 76.2597 40.7642 76.2597 41.4801V48H74.3932V46.6577H74.3165C74.1929 46.9048 74.0075 47.1477 73.7604 47.3864C73.5132 47.625 73.1958 47.8232 72.808 47.9808C72.4202 48.1385 71.9557 48.2173 71.4145 48.2173ZM71.83 46.6832C72.3584 46.6832 72.8101 46.5788 73.1851 46.37C73.5644 46.1612 73.852 45.8885 74.048 45.5518C74.2483 45.2109 74.3485 44.8466 74.3485 44.4588V43.1932C74.2803 43.2614 74.1482 43.3253 73.9521 43.3849C73.7604 43.4403 73.5409 43.4893 73.2938 43.532C73.0466 43.5703 72.8058 43.6065 72.5715 43.6406C72.3371 43.6705 72.1411 43.696 71.9834 43.7173C71.6127 43.7642 71.2739 43.843 70.9671 43.9538C70.6645 44.0646 70.4216 44.2244 70.2384 44.4332C70.0594 44.6378 69.9699 44.9105 69.9699 45.2514C69.9699 45.7244 70.1446 46.0824 70.4941 46.3253C70.8435 46.5639 71.2888 46.6832 71.83 46.6832Z" fill="black"/>
</svg>
