<svg width="101" height="61" viewBox="0 0 101 61" fill="none" xmlns="http://www.w3.org/2000/svg">
<path d="M3.73098 20.2665L1.63922 2.00011L16.7188 12.7962L8.83814 14.1262L3.73098 20.2665Z" fill="#D9DD00" stroke="white" stroke-linecap="square"/>
<rect x="21" y="21" width="80" height="40" fill="#D9DD00"/>
<path d="M37.6035 38.348C37.5353 37.7429 37.2541 37.2741 36.7598 36.9418C36.2654 36.6051 35.6433 36.4368 34.8933 36.4368C34.3564 36.4368 33.8919 36.522 33.4998 36.6925C33.1078 36.8587 32.8031 37.0888 32.5858 37.3828C32.3727 37.6726 32.2662 38.0028 32.2662 38.3736C32.2662 38.6847 32.3386 38.9531 32.4835 39.179C32.6326 39.4048 32.8265 39.5945 33.0652 39.7479C33.3081 39.897 33.568 40.0227 33.845 40.125C34.122 40.223 34.3883 40.304 34.644 40.3679L35.9224 40.7003C36.34 40.8026 36.7683 40.9411 37.2072 41.1158C37.6461 41.2905 38.0531 41.5206 38.4281 41.8061C38.8031 42.0916 39.1056 42.4453 39.3358 42.8672C39.5701 43.2891 39.6873 43.794 39.6873 44.3821C39.6873 45.1236 39.4956 45.782 39.112 46.3572C38.7328 46.9325 38.1809 47.3864 37.4565 47.7188C36.7363 48.0511 35.8649 48.2173 34.8422 48.2173C33.862 48.2173 33.014 48.0618 32.2981 47.7507C31.5822 47.4396 31.0218 46.9986 30.617 46.4276C30.2122 45.8523 29.9885 45.1705 29.9458 44.3821H31.9274C31.9657 44.8551 32.1191 45.2493 32.3876 45.5646C32.6603 45.8757 33.0076 46.108 33.4295 46.2614C33.8556 46.4105 34.3223 46.4851 34.8294 46.4851C35.3876 46.4851 35.8841 46.3977 36.3187 46.223C36.7576 46.044 37.1028 45.7969 37.3542 45.4815C37.6056 45.1619 37.7314 44.7891 37.7314 44.3629C37.7314 43.9751 37.6206 43.6577 37.399 43.4105C37.1816 43.1634 36.8855 42.9588 36.5105 42.7969C36.1397 42.6349 35.72 42.4922 35.2512 42.3686L33.7044 41.9467C32.6561 41.6612 31.8251 41.2415 31.2115 40.6875C30.6021 40.1335 30.2974 39.4006 30.2974 38.4886C30.2974 37.7344 30.502 37.076 30.911 36.5135C31.3201 35.951 31.8741 35.5142 32.573 35.2031C33.2718 34.8878 34.0602 34.7301 34.938 34.7301C35.8244 34.7301 36.6064 34.8857 37.2839 35.1967C37.9657 35.5078 38.5027 35.9361 38.8947 36.4815C39.2868 37.0227 39.4913 37.6449 39.5083 38.348H37.6035ZM43.1023 51.6818C42.8168 51.6818 42.5568 51.6584 42.3224 51.6115C42.0881 51.5689 41.9134 51.522 41.7983 51.4709L42.2585 49.9048C42.608 49.9986 42.919 50.0391 43.1918 50.0263C43.4645 50.0135 43.7053 49.9112 43.9141 49.7195C44.1271 49.5277 44.3146 49.2145 44.4766 48.7798L44.7131 48.1278L41.1207 38.1818H43.1662L45.6527 45.8011H45.755L48.2415 38.1818H50.2933L46.2472 49.3104C46.0597 49.8217 45.821 50.2543 45.5312 50.608C45.2415 50.9659 44.8963 51.2344 44.4957 51.4134C44.0952 51.5923 43.6307 51.6818 43.1023 51.6818ZM55.4309 48.1918C54.6383 48.1918 53.9309 47.9893 53.3088 47.5845C52.6909 47.1754 52.2051 46.5937 51.8514 45.8395C51.502 45.081 51.3272 44.1712 51.3272 43.1101C51.3272 42.049 51.5041 41.1413 51.8578 40.3871C52.2157 39.6328 52.7058 39.0554 53.3279 38.6548C53.9501 38.2543 54.6554 38.054 55.4437 38.054C56.0531 38.054 56.5431 38.1562 56.9139 38.3608C57.2889 38.5611 57.5787 38.7955 57.7832 39.0639C57.992 39.3324 58.1539 39.5689 58.269 39.7734H58.3841V34.9091H60.2953V48H58.4288V46.4723H58.269C58.1539 46.6811 57.9877 46.9197 57.7704 47.1882C57.5574 47.4567 57.2633 47.6911 56.8883 47.8913C56.5133 48.0916 56.0275 48.1918 55.4309 48.1918ZM55.8528 46.5618C56.4025 46.5618 56.867 46.4169 57.2463 46.1271C57.6298 45.8331 57.9196 45.4261 58.1156 44.9062C58.3159 44.3864 58.416 43.7812 58.416 43.0909C58.416 42.4091 58.318 41.8125 58.122 41.3011C57.926 40.7898 57.6383 40.3913 57.2591 40.1058C56.8798 39.8203 56.411 39.6776 55.8528 39.6776C55.2775 39.6776 54.7981 39.8267 54.4146 40.125C54.0311 40.4233 53.7413 40.8303 53.5453 41.3459C53.3535 41.8615 53.2576 42.4432 53.2576 43.0909C53.2576 43.7472 53.3556 44.3374 53.5517 44.8615C53.7477 45.3857 54.0375 45.8011 54.421 46.108C54.8088 46.4105 55.286 46.5618 55.8528 46.5618ZM64.9343 42.1705V48H63.0231V38.1818H64.8576V39.7798H64.979C65.2049 39.2599 65.5586 38.8423 66.0401 38.527C66.5259 38.2116 67.1374 38.054 67.8746 38.054C68.5437 38.054 69.1296 38.1946 69.6325 38.4759C70.1353 38.7528 70.5252 39.1662 70.8022 39.7159C71.0792 40.2656 71.2177 40.9453 71.2177 41.755V48H69.3065V41.9851C69.3065 41.2734 69.1211 40.7173 68.7504 40.3168C68.3796 39.9119 67.8704 39.7095 67.2227 39.7095C66.7795 39.7095 66.3853 39.8054 66.0401 39.9972C65.6992 40.1889 65.4286 40.4702 65.2283 40.8409C65.0323 41.2074 64.9343 41.6506 64.9343 42.1705ZM78.0124 48.1982C77.0451 48.1982 76.212 47.9915 75.5131 47.5781C74.8185 47.1605 74.2816 46.5746 73.9023 45.8203C73.5273 45.0618 73.3398 44.1733 73.3398 43.1548C73.3398 42.1491 73.5273 41.2628 73.9023 40.4957C74.2816 39.7287 74.81 39.13 75.4876 38.6996C76.1694 38.2692 76.9663 38.054 77.8782 38.054C78.4322 38.054 78.9691 38.1456 79.489 38.3288C80.0089 38.5121 80.4755 38.7997 80.8888 39.1918C81.3022 39.5838 81.6282 40.093 81.8668 40.7195C82.1055 41.3416 82.2248 42.098 82.2248 42.9886V43.6662H74.4201V42.2344H80.3519C80.3519 41.7315 80.2496 41.2862 80.0451 40.8984C79.8406 40.5064 79.5529 40.1974 79.1822 39.9716C78.8157 39.7457 78.3853 39.6328 77.891 39.6328C77.354 39.6328 76.8853 39.7649 76.4847 40.0291C76.0884 40.2891 75.7816 40.63 75.5643 41.0518C75.3512 41.4695 75.2447 41.9233 75.2447 42.4134V43.532C75.2447 44.1882 75.3597 44.7464 75.5898 45.2067C75.8242 45.6669 76.1502 46.0185 76.5678 46.2614C76.9854 46.5 77.4734 46.6193 78.0316 46.6193C78.3938 46.6193 78.7241 46.5682 79.0224 46.4659C79.3207 46.3594 79.5785 46.2017 79.7958 45.9929C80.0131 45.7841 80.1793 45.5263 80.2944 45.2195L82.1033 45.5455C81.9585 46.0781 81.6985 46.5447 81.3235 46.9453C80.9528 47.3416 80.4862 47.6506 79.9237 47.8722C79.3654 48.0895 78.7283 48.1982 78.0124 48.1982ZM85.2722 51.6818C84.9867 51.6818 84.7267 51.6584 84.4924 51.6115C84.258 51.5689 84.0833 51.522 83.9682 51.4709L84.4284 49.9048C84.7779 49.9986 85.089 50.0391 85.3617 50.0263C85.6344 50.0135 85.8752 49.9112 86.084 49.7195C86.2971 49.5277 86.4846 49.2145 86.6465 48.7798L86.883 48.1278L83.2907 38.1818H85.3361L87.8226 45.8011H87.9249L90.4114 38.1818H92.4632L88.4171 49.3104C88.2296 49.8217 87.9909 50.2543 87.7012 50.608C87.4114 50.9659 87.0662 51.2344 86.6657 51.4134C86.2651 51.5923 85.8006 51.6818 85.2722 51.6818Z" fill="black"/>
</svg>
