<svg width="86" height="61" viewBox="0 0 86 61" fill="none" xmlns="http://www.w3.org/2000/svg">
<path d="M3.73098 20.2665L1.63922 2.00011L16.7188 12.7962L8.83814 14.1262L3.73098 20.2665Z" fill="#DD5D00" stroke="white" stroke-linecap="square"/>
<rect x="21" y="21" width="65" height="40" fill="#DD5D00"/>
<path d="M40.2781 48V34.9091H42.2532V46.2997H48.185V48H40.2781ZM50.2848 48V38.1818H52.196V48H50.2848ZM51.25 36.6669C50.9176 36.6669 50.6321 36.5561 50.3935 36.3345C50.1591 36.1087 50.0419 35.8402 50.0419 35.5291C50.0419 35.2138 50.1591 34.9453 50.3935 34.7237C50.6321 34.4979 50.9176 34.3849 51.25 34.3849C51.5824 34.3849 51.8658 34.4979 52.1001 34.7237C52.3388 34.9453 52.4581 35.2138 52.4581 35.5291C52.4581 35.8402 52.3388 36.1087 52.1001 36.3345C51.8658 36.5561 51.5824 36.6669 51.25 36.6669ZM56.6784 34.9091V48H54.7672V34.9091H56.6784ZM60.4577 51.6818C60.1722 51.6818 59.9123 51.6584 59.6779 51.6115C59.4435 51.5689 59.2688 51.522 59.1538 51.4709L59.614 49.9048C59.9634 49.9986 60.2745 50.0391 60.5472 50.0263C60.82 50.0135 61.0607 49.9112 61.2695 49.7195C61.4826 49.5277 61.6701 49.2145 61.832 48.7798L62.0685 48.1278L58.4762 38.1818H60.5217L63.0082 45.8011H63.1104L65.5969 38.1818H67.6488L63.6026 49.3104C63.4151 49.8217 63.1765 50.2543 62.8867 50.608C62.5969 50.9659 62.2518 51.2344 61.8512 51.4134C61.4506 51.5923 60.9862 51.6818 60.4577 51.6818Z" fill="white"/>
</svg>
