<svg width="84" height="61" viewBox="0 0 84 61" fill="none" xmlns="http://www.w3.org/2000/svg">
<path d="M3.73098 20.2665L1.63923 2.00011L16.7188 12.7962L8.83814 14.1262L3.73098 20.2665Z" fill="#DD00BA" stroke="white" stroke-linecap="square"/>
<rect x="21" y="21" width="63" height="40" fill="#DD00BA"/>
<path d="M32.405 48V34.9091H37.0712C38.0897 34.9091 38.9334 35.0945 39.6025 35.4652C40.2715 35.8359 40.7722 36.343 41.1046 36.9865C41.437 37.6257 41.6032 38.3459 41.6032 39.147C41.6032 39.9524 41.4348 40.6768 41.0982 41.3203C40.7658 41.9595 40.263 42.4666 39.5897 42.8416C38.9206 43.2124 38.079 43.3977 37.0648 43.3977H33.856V41.723H36.8858C37.5293 41.723 38.0513 41.6122 38.4519 41.3906C38.8525 41.1648 39.1465 40.858 39.334 40.4702C39.5215 40.0824 39.6152 39.6413 39.6152 39.147C39.6152 38.6527 39.5215 38.2138 39.334 37.8303C39.1465 37.4467 38.8503 37.1463 38.4455 36.929C38.0449 36.7116 37.5165 36.603 36.8603 36.603H34.3801V48H32.405ZM43.7653 48V38.1818H45.6126V39.7415H45.7148C45.8938 39.2131 46.2092 38.7976 46.6609 38.495C47.1168 38.1882 47.6325 38.0348 48.2077 38.0348C48.3271 38.0348 48.4677 38.0391 48.6296 38.0476C48.7958 38.0561 48.9258 38.0668 49.0195 38.0795V39.9077C48.9428 39.8864 48.8065 39.8629 48.6104 39.8374C48.4144 39.8075 48.2184 39.7926 48.0224 39.7926C47.5707 39.7926 47.168 39.8885 46.8143 40.0803C46.4648 40.2678 46.1879 40.5298 45.9833 40.8665C45.7788 41.1989 45.6765 41.5781 45.6765 42.0043V48H43.7653ZM50.6735 48V38.1818H52.5847V48H50.6735ZM51.6387 36.6669C51.3063 36.6669 51.0208 36.5561 50.7821 36.3345C50.5478 36.1087 50.4306 35.8402 50.4306 35.5291C50.4306 35.2138 50.5478 34.9453 50.7821 34.7237C51.0208 34.4979 51.3063 34.3849 51.6387 34.3849C51.9711 34.3849 52.2544 34.4979 52.4888 34.7237C52.7275 34.9453 52.8468 35.2138 52.8468 35.5291C52.8468 35.8402 52.7275 36.1087 52.4888 36.3345C52.2544 36.5561 51.9711 36.6669 51.6387 36.6669ZM56.364 51.6818C56.0785 51.6818 55.8185 51.6584 55.5842 51.6115C55.3498 51.5689 55.1751 51.522 55.06 51.4709L55.5202 49.9048C55.8697 49.9986 56.1808 50.0391 56.4535 50.0263C56.7262 50.0135 56.967 49.9112 57.1758 49.7195C57.3888 49.5277 57.5763 49.2145 57.7383 48.7798L57.9748 48.1278L54.3825 38.1818H56.4279L58.9144 45.8011H59.0167L61.5032 38.1818H63.555L59.5089 49.3104C59.3214 49.8217 59.0827 50.2543 58.793 50.608C58.5032 50.9659 58.158 51.2344 57.7575 51.4134C57.3569 51.5923 56.8924 51.6818 56.364 51.6818ZM67.9272 48.2173C67.305 48.2173 66.7425 48.1023 66.2397 47.8722C65.7369 47.6378 65.3384 47.299 65.0444 46.8558C64.7546 46.4126 64.6097 45.8693 64.6097 45.2259C64.6097 44.6719 64.7163 44.2159 64.9293 43.858C65.1424 43.5 65.43 43.2166 65.7923 43.0078C66.1545 42.799 66.5593 42.6413 67.0067 42.5348C67.4542 42.4283 67.9102 42.3473 68.3746 42.2919C68.9627 42.2237 69.44 42.1683 69.8065 42.1257C70.1729 42.0788 70.4393 42.0043 70.6055 41.902C70.7717 41.7997 70.8548 41.6335 70.8548 41.4034V41.3587C70.8548 40.8004 70.6971 40.3679 70.3817 40.0611C70.0707 39.7543 69.6062 39.6009 68.9883 39.6009C68.3448 39.6009 67.8377 39.7436 67.467 40.0291C67.1005 40.3104 66.8469 40.6236 66.7063 40.9688L64.9102 40.5597C65.1232 39.9631 65.4343 39.4815 65.8434 39.1151C66.2567 38.7443 66.7319 38.4759 67.2688 38.3097C67.8058 38.1392 68.3704 38.054 68.9627 38.054C69.3548 38.054 69.7702 38.1009 70.2092 38.1946C70.6523 38.2841 71.0657 38.4503 71.4492 38.6932C71.837 38.9361 72.1545 39.2834 72.4016 39.7351C72.6488 40.1825 72.7724 40.7642 72.7724 41.4801V48H70.9059V46.6577H70.8292C70.7056 46.9048 70.5202 47.1477 70.2731 47.3864C70.0259 47.625 69.7085 47.8232 69.3207 47.9808C68.9329 48.1385 68.4684 48.2173 67.9272 48.2173ZM68.3427 46.6832C68.8711 46.6832 69.3228 46.5788 69.6978 46.37C70.0771 46.1612 70.3647 45.8885 70.5607 45.5518C70.761 45.2109 70.8612 44.8466 70.8612 44.4588V43.1932C70.793 43.2614 70.6609 43.3253 70.4648 43.3849C70.2731 43.4403 70.0536 43.4893 69.8065 43.532C69.5593 43.5703 69.3185 43.6065 69.0842 43.6406C68.8498 43.6705 68.6538 43.696 68.4961 43.7173C68.1254 43.7642 67.7866 43.843 67.4798 43.9538C67.1772 44.0646 66.9343 44.2244 66.7511 44.4332C66.5721 44.6378 66.4826 44.9105 66.4826 45.2514C66.4826 45.7244 66.6573 46.0824 67.0067 46.3253C67.3562 46.5639 67.8015 46.6832 68.3427 46.6832Z" fill="white"/>
</svg>
