<svg width="139" height="61" viewBox="0 0 139 61" fill="none" xmlns="http://www.w3.org/2000/svg">
<path d="M3.73098 20.2665L1.63923 2.00011L16.7188 12.7962L8.83814 14.1262L3.73098 20.2665Z" fill="#D9DD00" stroke="white" stroke-linecap="square"/>
<rect x="21" y="21" width="118" height="40" fill="#D9DD00"/>
<path d="M46.0566 38.348C45.9885 37.7429 45.7072 37.2741 45.2129 36.9418C44.7186 36.6051 44.0964 36.4368 43.3464 36.4368C42.8095 36.4368 42.345 36.522 41.9529 36.6925C41.5609 36.8587 41.2562 37.0888 41.0389 37.3828C40.8258 37.6726 40.7193 38.0028 40.7193 38.3736C40.7193 38.6847 40.7917 38.9531 40.9366 39.179C41.0858 39.4048 41.2797 39.5945 41.5183 39.7479C41.7612 39.897 42.0211 40.0227 42.2981 40.125C42.5751 40.223 42.8414 40.304 43.0971 40.3679L44.3755 40.7003C44.7931 40.8026 45.2214 40.9411 45.6603 41.1158C46.0993 41.2905 46.5062 41.5206 46.8812 41.8061C47.2562 42.0916 47.5588 42.4453 47.7889 42.8672C48.0233 43.2891 48.1404 43.794 48.1404 44.3821C48.1404 45.1236 47.9487 45.782 47.5652 46.3572C47.1859 46.9325 46.6341 47.3864 45.9096 47.7188C45.1895 48.0511 44.318 48.2173 43.2953 48.2173C42.3152 48.2173 41.4672 48.0618 40.7512 47.7507C40.0353 47.4396 39.475 46.9986 39.0701 46.4276C38.6653 45.8523 38.4416 45.1705 38.399 44.3821H40.3805C40.4189 44.8551 40.5723 45.2493 40.8407 45.5646C41.1135 45.8757 41.4608 46.108 41.8826 46.2614C42.3088 46.4105 42.7754 46.4851 43.2825 46.4851C43.8407 46.4851 44.3372 46.3977 44.7718 46.223C45.2108 46.044 45.5559 45.7969 45.8074 45.4815C46.0588 45.1619 46.1845 44.7891 46.1845 44.3629C46.1845 43.9751 46.0737 43.6577 45.8521 43.4105C45.6348 43.1634 45.3386 42.9588 44.9636 42.7969C44.5929 42.6349 44.1731 42.4922 43.7044 42.3686L42.1575 41.9467C41.1092 41.6612 40.2782 41.2415 39.6646 40.6875C39.0552 40.1335 38.7505 39.4006 38.7505 38.4886C38.7505 37.7344 38.9551 37.076 39.3642 36.5135C39.7733 35.951 40.3272 35.5142 41.0261 35.2031C41.725 34.8878 42.5133 34.7301 43.3912 34.7301C44.2775 34.7301 45.0595 34.8857 45.737 35.1967C46.4189 35.5078 46.9558 35.9361 47.3478 36.4815C47.7399 37.0227 47.9444 37.6449 47.9615 38.348H46.0566ZM53.2045 48.2173C52.5824 48.2173 52.0199 48.1023 51.517 47.8722C51.0142 47.6378 50.6158 47.299 50.3217 46.8558C50.032 46.4126 49.8871 45.8693 49.8871 45.2259C49.8871 44.6719 49.9936 44.2159 50.2067 43.858C50.4197 43.5 50.7074 43.2166 51.0696 43.0078C51.4318 42.799 51.8366 42.6413 52.2841 42.5348C52.7315 42.4283 53.1875 42.3473 53.652 42.2919C54.2401 42.2237 54.7173 42.1683 55.0838 42.1257C55.4503 42.0788 55.7166 42.0043 55.8828 41.902C56.049 41.7997 56.1321 41.6335 56.1321 41.4034V41.3587C56.1321 40.8004 55.9744 40.3679 55.6591 40.0611C55.348 39.7543 54.8835 39.6009 54.2656 39.6009C53.6222 39.6009 53.1151 39.7436 52.7443 40.0291C52.3778 40.3104 52.1243 40.6236 51.9837 40.9688L50.1875 40.5597C50.4006 39.9631 50.7116 39.4815 51.1207 39.1151C51.5341 38.7443 52.0092 38.4759 52.5462 38.3097C53.0831 38.1392 53.6477 38.054 54.2401 38.054C54.6321 38.054 55.0476 38.1009 55.4865 38.1946C55.9297 38.2841 56.343 38.4503 56.7266 38.6932C57.1143 38.9361 57.4318 39.2834 57.679 39.7351C57.9261 40.1825 58.0497 40.7642 58.0497 41.4801V48H56.1832V46.6577H56.1065C55.983 46.9048 55.7976 47.1477 55.5504 47.3864C55.3033 47.625 54.9858 47.8232 54.598 47.9808C54.2102 48.1385 53.7457 48.2173 53.2045 48.2173ZM53.62 46.6832C54.1484 46.6832 54.6001 46.5788 54.9751 46.37C55.3544 46.1612 55.642 45.8885 55.8381 45.5518C56.0384 45.2109 56.1385 44.8466 56.1385 44.4588V43.1932C56.0703 43.2614 55.9382 43.3253 55.7422 43.3849C55.5504 43.4403 55.331 43.4893 55.0838 43.532C54.8366 43.5703 54.5959 43.6065 54.3615 43.6406C54.1271 43.6705 53.9311 43.696 53.7734 43.7173C53.4027 43.7642 53.0639 43.843 52.7571 43.9538C52.4545 44.0646 52.2116 44.2244 52.0284 44.4332C51.8494 44.6378 51.7599 44.9105 51.7599 45.2514C51.7599 45.7244 51.9347 46.0824 52.2841 46.3253C52.6335 46.5639 53.0788 46.6832 53.62 46.6832ZM65.1784 38.1818V39.7159H59.8155V38.1818H65.1784ZM61.2537 35.8295H63.165V45.1172C63.165 45.4879 63.2203 45.767 63.3311 45.9545C63.4419 46.1378 63.5847 46.2635 63.7594 46.3317C63.9384 46.3956 64.1323 46.4276 64.3411 46.4276C64.4945 46.4276 64.6287 46.4169 64.7438 46.3956C64.8588 46.3743 64.9483 46.3572 65.0123 46.3445L65.3574 47.9233C65.2466 47.9659 65.089 48.0085 64.8844 48.0511C64.6799 48.098 64.4242 48.1236 64.1174 48.1278C63.6145 48.1364 63.1458 48.0469 62.7111 47.8594C62.2765 47.6719 61.9249 47.3821 61.6564 46.9901C61.388 46.598 61.2537 46.1058 61.2537 45.5135V35.8295ZM68.5007 51.6818C68.2152 51.6818 67.9553 51.6584 67.7209 51.6115C67.4865 51.5689 67.3118 51.522 67.1967 51.4709L67.657 49.9048C68.0064 49.9986 68.3175 50.0391 68.5902 50.0263C68.8629 50.0135 69.1037 49.9112 69.3125 49.7195C69.5256 49.5277 69.7131 49.2145 69.875 48.7798L70.1115 48.1278L66.5192 38.1818H68.5646L71.0511 45.8011H71.1534L73.6399 38.1818H75.6918L71.6456 49.3104C71.4581 49.8217 71.2195 50.2543 70.9297 50.608C70.6399 50.9659 70.2947 51.2344 69.8942 51.4134C69.4936 51.5923 69.0291 51.6818 68.5007 51.6818ZM80.0639 48.2173C79.4418 48.2173 78.8793 48.1023 78.3764 47.8722C77.8736 47.6378 77.4751 47.299 77.1811 46.8558C76.8913 46.4126 76.7464 45.8693 76.7464 45.2259C76.7464 44.6719 76.853 44.2159 77.0661 43.858C77.2791 43.5 77.5668 43.2166 77.929 43.0078C78.2912 42.799 78.696 42.6413 79.1435 42.5348C79.5909 42.4283 80.0469 42.3473 80.5114 42.2919C81.0994 42.2237 81.5767 42.1683 81.9432 42.1257C82.3097 42.0788 82.576 42.0043 82.7422 41.902C82.9084 41.7997 82.9915 41.6335 82.9915 41.4034V41.3587C82.9915 40.8004 82.8338 40.3679 82.5185 40.0611C82.2074 39.7543 81.7429 39.6009 81.125 39.6009C80.4815 39.6009 79.9744 39.7436 79.6037 40.0291C79.2372 40.3104 78.9837 40.6236 78.843 40.9688L77.0469 40.5597C77.2599 39.9631 77.571 39.4815 77.9801 39.1151C78.3935 38.7443 78.8686 38.4759 79.4055 38.3097C79.9425 38.1392 80.5071 38.054 81.0994 38.054C81.4915 38.054 81.907 38.1009 82.3459 38.1946C82.7891 38.2841 83.2024 38.4503 83.5859 38.6932C83.9737 38.9361 84.2912 39.2834 84.5384 39.7351C84.7855 40.1825 84.9091 40.7642 84.9091 41.4801V48H83.0426V46.6577H82.9659C82.8423 46.9048 82.657 47.1477 82.4098 47.3864C82.1626 47.625 81.8452 47.8232 81.4574 47.9808C81.0696 48.1385 80.6051 48.2173 80.0639 48.2173ZM80.4794 46.6832C81.0078 46.6832 81.4595 46.5788 81.8345 46.37C82.2138 46.1612 82.5014 45.8885 82.6974 45.5518C82.8977 45.2109 82.9979 44.8466 82.9979 44.4588V43.1932C82.9297 43.2614 82.7976 43.3253 82.6016 43.3849C82.4098 43.4403 82.1903 43.4893 81.9432 43.532C81.696 43.5703 81.4553 43.6065 81.2209 43.6406C80.9865 43.6705 80.7905 43.696 80.6328 43.7173C80.2621 43.7642 79.9233 43.843 79.6165 43.9538C79.3139 44.0646 79.071 44.2244 78.8878 44.4332C78.7088 44.6378 78.6193 44.9105 78.6193 45.2514C78.6193 45.7244 78.794 46.0824 79.1435 46.3253C79.4929 46.5639 79.9382 46.6832 80.4794 46.6832ZM87.4547 48V38.1818H89.302V39.7415H89.4043C89.5833 39.2131 89.8986 38.7976 90.3503 38.495C90.8063 38.1882 91.3219 38.0348 91.8972 38.0348C92.0165 38.0348 92.1571 38.0391 92.3191 38.0476C92.4853 38.0561 92.6152 38.0668 92.709 38.0795V39.9077C92.6323 39.8864 92.4959 39.8629 92.2999 39.8374C92.1039 39.8075 91.9078 39.7926 91.7118 39.7926C91.2601 39.7926 90.8574 39.8885 90.5037 40.0803C90.1543 40.2678 89.8773 40.5298 89.6728 40.8665C89.4682 41.1989 89.3659 41.5781 89.3659 42.0043V48H87.4547ZM94.3629 48V38.1818H96.2741V48H94.3629ZM95.3281 36.6669C94.9957 36.6669 94.7102 36.5561 94.4716 36.3345C94.2372 36.1087 94.12 35.8402 94.12 35.5291C94.12 35.2138 94.2372 34.9453 94.4716 34.7237C94.7102 34.4979 94.9957 34.3849 95.3281 34.3849C95.6605 34.3849 95.9439 34.4979 96.1783 34.7237C96.4169 34.9453 96.5362 35.2138 96.5362 35.5291C96.5362 35.8402 96.4169 36.1087 96.1783 36.3345C95.9439 36.5561 95.6605 36.6669 95.3281 36.6669ZM106.203 40.5788L104.47 40.8857C104.398 40.6641 104.283 40.4531 104.125 40.2528C103.972 40.0526 103.763 39.8885 103.499 39.7607C103.235 39.6328 102.904 39.5689 102.508 39.5689C101.967 39.5689 101.515 39.6903 101.153 39.9332C100.791 40.1719 100.61 40.4808 100.61 40.8601C100.61 41.1882 100.731 41.4524 100.974 41.6527C101.217 41.853 101.609 42.017 102.15 42.1449L103.71 42.5028C104.613 42.7116 105.286 43.0334 105.73 43.468C106.173 43.9027 106.394 44.4673 106.394 45.1619C106.394 45.75 106.224 46.2741 105.883 46.7344C105.546 47.1903 105.075 47.5483 104.47 47.8082C103.869 48.0682 103.173 48.1982 102.38 48.1982C101.281 48.1982 100.384 47.9638 99.6891 47.495C98.9945 47.022 98.5684 46.3509 98.4107 45.4815L100.258 45.2003C100.373 45.6818 100.61 46.0462 100.968 46.2933C101.325 46.5362 101.792 46.6577 102.367 46.6577C102.994 46.6577 103.494 46.5277 103.869 46.2678C104.244 46.0036 104.432 45.6818 104.432 45.3026C104.432 44.9957 104.317 44.7379 104.087 44.5291C103.861 44.3203 103.514 44.1626 103.045 44.0561L101.383 43.6918C100.467 43.483 99.7892 43.1506 99.3503 42.6946C98.9157 42.2386 98.6983 41.6612 98.6983 40.9624C98.6983 40.3828 98.8603 39.8757 99.1841 39.4411C99.508 39.0064 99.9554 38.6676 100.526 38.4247C101.097 38.1776 101.752 38.054 102.489 38.054C103.55 38.054 104.385 38.2841 104.994 38.7443C105.604 39.2003 106.007 39.8118 106.203 40.5788ZM110.407 42.1705V48H108.496V34.9091H110.381V39.7798H110.503C110.733 39.2514 111.085 38.8317 111.558 38.5206C112.031 38.2095 112.648 38.054 113.411 38.054C114.085 38.054 114.673 38.1925 115.175 38.4695C115.683 38.7464 116.075 39.1598 116.352 39.7095C116.633 40.255 116.773 40.9368 116.773 41.755V48H114.862V41.9851C114.862 41.2649 114.677 40.7067 114.306 40.3104C113.935 39.9098 113.42 39.7095 112.759 39.7095C112.308 39.7095 111.903 39.8054 111.545 39.9972C111.191 40.1889 110.912 40.4702 110.707 40.8409C110.507 41.2074 110.407 41.6506 110.407 42.1705ZM119.324 48V38.1818H121.235V48H119.324ZM120.289 36.6669C119.957 36.6669 119.671 36.5561 119.433 36.3345C119.198 36.1087 119.081 35.8402 119.081 35.5291C119.081 35.2138 119.198 34.9453 119.433 34.7237C119.671 34.4979 119.957 34.3849 120.289 34.3849C120.621 34.3849 120.905 34.4979 121.139 34.7237C121.378 34.9453 121.497 35.2138 121.497 35.5291C121.497 35.8402 121.378 36.1087 121.139 36.3345C120.905 36.5561 120.621 36.6669 120.289 36.6669Z" fill="black"/>
</svg>
